<svg width="640" height="480" viewBox="0 0 640 480" fill="none" xmlns="http://www.w3.org/2000/svg">
<rect width="640" height="480" fill="black" fill-opacity="0.25"/>
<path d="M67.4972 222.091V257H63.2699V225.841H45.679V257H41.4517V222.091H67.4972ZM76.0241 257V222.091H87.8196C90.5582 222.091 92.7969 222.585 94.5355 223.574C96.2855 224.551 97.581 225.875 98.4219 227.545C99.2628 229.216 99.6832 231.08 99.6832 233.136C99.6832 235.193 99.2628 237.062 98.4219 238.744C97.5923 240.426 96.3082 241.767 94.5696 242.767C92.831 243.756 90.6037 244.25 87.8878 244.25H79.4332V240.5H87.7514C89.6264 240.5 91.1321 240.176 92.2685 239.528C93.4048 238.881 94.2287 238.006 94.7401 236.903C95.2628 235.79 95.5241 234.534 95.5241 233.136C95.5241 231.739 95.2628 230.489 94.7401 229.386C94.2287 228.284 93.3991 227.42 92.2514 226.795C91.1037 226.159 89.581 225.841 87.6832 225.841H80.2514V257H76.0241ZM106.493 257V222.091H127.561V225.841H110.72V237.636H126.47V241.386H110.72V253.25H127.834V257H106.493ZM135.18 257V222.091H147.385C149.817 222.091 151.822 222.511 153.402 223.352C154.982 224.182 156.158 225.301 156.93 226.71C157.703 228.108 158.089 229.659 158.089 231.364C158.089 232.864 157.822 234.102 157.288 235.08C156.766 236.057 156.072 236.83 155.209 237.398C154.357 237.966 153.43 238.386 152.43 238.659V239C153.499 239.068 154.572 239.443 155.652 240.125C156.732 240.807 157.635 241.784 158.362 243.057C159.089 244.33 159.453 245.886 159.453 247.727C159.453 249.477 159.055 251.051 158.26 252.449C157.464 253.847 156.209 254.955 154.493 255.773C152.777 256.591 150.544 257 147.794 257H135.18ZM139.408 253.25H147.794C150.555 253.25 152.516 252.716 153.675 251.648C154.845 250.568 155.43 249.261 155.43 247.727C155.43 246.545 155.129 245.455 154.527 244.455C153.925 243.443 153.067 242.636 151.953 242.034C150.839 241.42 149.521 241.114 147.999 241.114H139.408V253.25ZM139.408 237.432H147.249C148.521 237.432 149.669 237.182 150.692 236.682C151.726 236.182 152.544 235.477 153.146 234.568C153.76 233.659 154.067 232.591 154.067 231.364C154.067 229.83 153.533 228.528 152.464 227.46C151.396 226.381 149.703 225.841 147.385 225.841H139.408V237.432ZM169.536 236.75H179.49C181.99 236.75 184.098 237.159 185.814 237.977C187.541 238.795 188.848 239.949 189.734 241.438C190.632 242.926 191.081 244.682 191.081 246.705C191.081 248.727 190.632 250.511 189.734 252.057C188.848 253.602 187.541 254.812 185.814 255.688C184.098 256.562 181.99 257 179.49 257H166.399V222.091H170.626V253.318H179.49C181.081 253.318 182.428 253 183.53 252.364C184.643 251.716 185.484 250.886 186.053 249.875C186.632 248.852 186.922 247.773 186.922 246.636C186.922 244.966 186.28 243.528 184.996 242.324C183.712 241.108 181.876 240.5 179.49 240.5H169.536V236.75ZM201.986 222.091V257H197.759V222.091H201.986ZM209.605 237.977V241.727H198.918V237.977H209.605ZM239.213 239.545C239.213 243.227 238.548 246.409 237.219 249.091C235.889 251.773 234.065 253.841 231.747 255.295C229.429 256.75 226.781 257.477 223.804 257.477C220.827 257.477 218.179 256.75 215.861 255.295C213.543 253.841 211.719 251.773 210.389 249.091C209.06 246.409 208.395 243.227 208.395 239.545C208.395 235.864 209.06 232.682 210.389 230C211.719 227.318 213.543 225.25 215.861 223.795C218.179 222.341 220.827 221.614 223.804 221.614C226.781 221.614 229.429 222.341 231.747 223.795C234.065 225.25 235.889 227.318 237.219 230C238.548 232.682 239.213 235.864 239.213 239.545ZM235.122 239.545C235.122 236.523 234.616 233.972 233.605 231.892C232.605 229.812 231.247 228.239 229.531 227.17C227.827 226.102 225.918 225.568 223.804 225.568C221.69 225.568 219.776 226.102 218.06 227.17C216.355 228.239 214.997 229.812 213.986 231.892C212.986 233.972 212.486 236.523 212.486 239.545C212.486 242.568 212.986 245.119 213.986 247.199C214.997 249.278 216.355 250.852 218.06 251.92C219.776 252.989 221.69 253.523 223.804 253.523C225.918 253.523 227.827 252.989 229.531 251.92C231.247 250.852 232.605 249.278 233.605 247.199C234.616 245.119 235.122 242.568 235.122 239.545ZM289.276 239.545C289.276 243.227 288.611 246.409 287.281 249.091C285.952 251.773 284.128 253.841 281.81 255.295C279.491 256.75 276.844 257.477 273.866 257.477C270.889 257.477 268.241 256.75 265.923 255.295C263.605 253.841 261.781 251.773 260.452 249.091C259.122 246.409 258.457 243.227 258.457 239.545C258.457 235.864 259.122 232.682 260.452 230C261.781 227.318 263.605 225.25 265.923 223.795C268.241 222.341 270.889 221.614 273.866 221.614C276.844 221.614 279.491 222.341 281.81 223.795C284.128 225.25 285.952 227.318 287.281 230C288.611 232.682 289.276 235.864 289.276 239.545ZM285.185 239.545C285.185 236.523 284.679 233.972 283.668 231.892C282.668 229.812 281.31 228.239 279.594 227.17C277.889 226.102 275.98 225.568 273.866 225.568C271.753 225.568 269.838 226.102 268.122 227.17C266.418 228.239 265.06 229.812 264.048 231.892C263.048 233.972 262.548 236.523 262.548 239.545C262.548 242.568 263.048 245.119 264.048 247.199C265.06 249.278 266.418 250.852 268.122 251.92C269.838 252.989 271.753 253.523 273.866 253.523C275.98 253.523 277.889 252.989 279.594 251.92C281.31 250.852 282.668 249.278 283.668 247.199C284.679 245.119 285.185 242.568 285.185 239.545ZM293.021 225.841V222.091H319.203V225.841H308.226V257H303.999V225.841H293.021ZM352.365 233H348.138C347.888 231.784 347.45 230.716 346.825 229.795C346.212 228.875 345.462 228.102 344.575 227.477C343.7 226.841 342.729 226.364 341.661 226.045C340.592 225.727 339.479 225.568 338.32 225.568C336.206 225.568 334.291 226.102 332.575 227.17C330.871 228.239 329.513 229.812 328.501 231.892C327.501 233.972 327.001 236.523 327.001 239.545C327.001 242.568 327.501 245.119 328.501 247.199C329.513 249.278 330.871 250.852 332.575 251.92C334.291 252.989 336.206 253.523 338.32 253.523C339.479 253.523 340.592 253.364 341.661 253.045C342.729 252.727 343.7 252.256 344.575 251.631C345.462 250.994 346.212 250.216 346.825 249.295C347.45 248.364 347.888 247.295 348.138 246.091H352.365C352.047 247.875 351.467 249.472 350.626 250.881C349.786 252.29 348.74 253.489 347.49 254.477C346.24 255.455 344.837 256.199 343.28 256.71C341.734 257.222 340.081 257.477 338.32 257.477C335.342 257.477 332.695 256.75 330.376 255.295C328.058 253.841 326.234 251.773 324.905 249.091C323.575 246.409 322.911 243.227 322.911 239.545C322.911 235.864 323.575 232.682 324.905 230C326.234 227.318 328.058 225.25 330.376 223.795C332.695 222.341 335.342 221.614 338.32 221.614C340.081 221.614 341.734 221.869 343.28 222.381C344.837 222.892 346.24 223.642 347.49 224.631C348.74 225.608 349.786 226.801 350.626 228.21C351.467 229.608 352.047 231.205 352.365 233ZM361.037 257.477V253.523H363.219C364.06 253.523 364.764 253.358 365.332 253.028C365.912 252.699 366.389 252.273 366.764 251.75C367.151 251.227 367.469 250.682 367.719 250.114L368.264 248.818L356.196 222.091H360.764L370.378 243.773L379.173 222.091H383.673L371.605 251.341C371.128 252.432 370.582 253.443 369.969 254.375C369.366 255.307 368.543 256.057 367.497 256.625C366.463 257.193 365.06 257.477 363.287 257.477H361.037ZM389.443 225.841V222.091H415.625V225.841H404.648V257H400.42V225.841H389.443ZM448.787 233H444.56C444.31 231.784 443.872 230.716 443.247 229.795C442.634 228.875 441.884 228.102 440.997 227.477C440.122 226.841 439.151 226.364 438.082 226.045C437.014 225.727 435.901 225.568 434.741 225.568C432.628 225.568 430.713 226.102 428.997 227.17C427.293 228.239 425.935 229.812 424.923 231.892C423.923 233.972 423.423 236.523 423.423 239.545C423.423 242.568 423.923 245.119 424.923 247.199C425.935 249.278 427.293 250.852 428.997 251.92C430.713 252.989 432.628 253.523 434.741 253.523C435.901 253.523 437.014 253.364 438.082 253.045C439.151 252.727 440.122 252.256 440.997 251.631C441.884 250.994 442.634 250.216 443.247 249.295C443.872 248.364 444.31 247.295 444.56 246.091H448.787C448.469 247.875 447.889 249.472 447.048 250.881C446.207 252.29 445.162 253.489 443.912 254.477C442.662 255.455 441.259 256.199 439.702 256.71C438.156 257.222 436.503 257.477 434.741 257.477C431.764 257.477 429.116 256.75 426.798 255.295C424.48 253.841 422.656 251.773 421.327 249.091C419.997 246.409 419.332 243.227 419.332 239.545C419.332 235.864 419.997 232.682 421.327 230C422.656 227.318 424.48 225.25 426.798 223.795C429.116 222.341 431.764 221.614 434.741 221.614C436.503 221.614 438.156 221.869 439.702 222.381C441.259 222.892 442.662 223.642 443.912 224.631C445.162 225.608 446.207 226.801 447.048 228.21C447.889 229.608 448.469 231.205 448.787 233ZM453.709 225.841V222.091H479.891V225.841H468.913V257H464.686V225.841H453.709ZM486.415 257V222.091H498.619C501.051 222.091 503.057 222.511 504.636 223.352C506.216 224.182 507.392 225.301 508.165 226.71C508.938 228.108 509.324 229.659 509.324 231.364C509.324 232.864 509.057 234.102 508.523 235.08C508 236.057 507.307 236.83 506.443 237.398C505.591 237.966 504.665 238.386 503.665 238.659V239C504.733 239.068 505.807 239.443 506.886 240.125C507.966 240.807 508.869 241.784 509.597 243.057C510.324 244.33 510.688 245.886 510.688 247.727C510.688 249.477 510.29 251.051 509.494 252.449C508.699 253.847 507.443 254.955 505.727 255.773C504.011 256.591 501.778 257 499.028 257H486.415ZM490.642 253.25H499.028C501.79 253.25 503.75 252.716 504.909 251.648C506.08 250.568 506.665 249.261 506.665 247.727C506.665 246.545 506.364 245.455 505.761 244.455C505.159 243.443 504.301 242.636 503.188 242.034C502.074 241.42 500.756 241.114 499.233 241.114H490.642V253.25ZM490.642 237.432H498.483C499.756 237.432 500.903 237.182 501.926 236.682C502.96 236.182 503.778 235.477 504.381 234.568C504.994 233.659 505.301 232.591 505.301 231.364C505.301 229.83 504.767 228.528 503.699 227.46C502.631 226.381 500.938 225.841 498.619 225.841H490.642V237.432ZM519.474 257.477V253.523H521.656C522.497 253.523 523.202 253.358 523.77 253.028C524.349 252.699 524.827 252.273 525.202 251.75C525.588 251.227 525.906 250.682 526.156 250.114L526.702 248.818L514.634 222.091H519.202L528.815 243.773L537.611 222.091H542.111L530.043 251.341C529.565 252.432 529.02 253.443 528.406 254.375C527.804 255.307 526.98 256.057 525.935 256.625C524.901 257.193 523.497 257.477 521.724 257.477H519.474ZM547.587 257V222.091H568.655V225.841H551.814V237.636H567.564V241.386H551.814V253.25H568.928V257H547.587ZM574.365 225.841V222.091H600.547V225.841H589.57V257H585.342V225.841H574.365Z" fill="white"/>
</svg>
