<svg width="128" height="128" viewBox="0 0 128 128" fill="none" xmlns="http://www.w3.org/2000/svg">
<g clip-path="url(#clip0_755_2)">
<g clip-path="url(#clip1_755_2)">
<path d="M123.525 49.1766C125.564 47.6008 126.688 45.8515 126.688 43.9432V36.7147C126.688 26.5081 94.5189 21 64.2451 21C33.9713 21 1.80209 26.5226 1.80209 36.7292V43.9576C1.80209 45.9816 3.10925 47.8177 5.33142 49.4513L4.39026 51.0705C2.65932 54.0377 1.55588 57.3986 1.16208 60.9029C0.768287 64.4072 1.09429 67.9646 2.1158 71.3102L4.97848 80.8373C5.81872 83.6035 6.11726 86.5357 5.85428 89.4392L4.37719 106.325H10.0764L12.5077 89.7573C12.999 86.4485 12.843 83.0617 12.0502 79.8254L10.2071 72.0041C9.42336 68.8177 9.34316 65.4697 9.97327 62.2419C10.6034 59.014 11.9254 56.0008 13.828 53.4559C24.8996 57.1713 42.2064 59.2386 59.487 59.6001L60.7942 91.4921H65.866L67.1731 59.6868C85.2381 59.441 103.669 57.2725 115.133 53.3691C117.074 55.9196 118.427 58.9527 119.076 62.2084C119.725 65.4641 119.65 68.8452 118.858 72.062L116.95 79.8687C116.151 83.1039 115.991 86.4909 116.479 89.8006L118.911 106.368H124.61L123.133 89.3814C122.877 86.4969 123.175 83.5852 124.008 80.8373L126.884 71.3536C127.906 68.0079 128.232 64.4506 127.838 60.9463C127.444 57.442 126.341 54.0811 124.61 51.1138L123.525 49.1766ZM64.2451 23.9058C101.316 23.9058 124.074 31.3801 124.074 36.7292C123.995 37.2301 123.826 37.7085 123.577 38.1357C123.328 38.5629 123.003 38.9302 122.623 39.2158C115.93 45.2154 91.3948 49.5669 64.2712 49.5669C37.1477 49.5669 12.6123 45.2299 5.91964 39.2302C5.53351 38.9452 5.20356 38.5767 4.9497 38.1469C4.69584 37.717 4.52332 37.2348 4.44255 36.7292C4.41641 31.3801 27.2002 23.9058 64.2451 23.9058ZM4.41641 41.6156L4.70398 41.8469L5.08306 42.1505L5.48828 42.4397L5.91964 42.7288L6.37715 43.0179L6.86079 43.3071L7.35752 43.5818L7.88038 43.8709L8.41631 44.1311L8.99146 44.4058L9.56662 44.666L10.1941 44.9407L10.8215 45.1865L11.4881 45.4467L12.1417 45.6925L12.8607 45.9527L13.5665 46.184L14.3116 46.4298L15.0567 46.6611L15.8541 46.9069L16.6253 47.1237L17.4619 47.355L18.2723 47.5719L19.1481 47.8032L19.9716 48.0056L20.8997 48.2224L21.7493 48.4104L22.7166 48.6272L23.6186 48.8152L24.5859 49.032L25.527 49.2055L26.5466 49.3935L27.4878 49.5525L28.5596 49.7404L29.54 49.8995L30.625 50.0729L31.6576 50.232L32.7426 50.391L33.736 50.4777L34.8994 50.6368L35.932 50.7669L37.1215 50.9114L38.2588 51.0416L39.396 51.1717L40.5463 51.2873L41.7227 51.403L42.8992 51.5042L44.0756 51.6054L45.3828 51.7066L46.52 51.7933L47.8272 51.8801H48.9252L50.2323 51.9523H51.3434H52.6506H53.8793H55.1865H56.4152H57.8792H58.9773H60.5458H67.8659H69.3953H70.3888H71.9704H72.9639H74.5063H75.6174H77.0161H78.101L79.4866 51.9957H80.5454L81.931 51.909L83.0159 51.8222L84.3231 51.721L85.408 51.6198L86.7152 51.5042L87.7348 51.403L89.0419 51.2729L90.0746 51.1572L91.3817 51.0126L92.3883 50.897L93.6039 50.7524L94.5843 50.6223L95.7869 50.4633L96.7672 50.3187L97.9045 50.1452L98.8979 49.9862L99.9828 49.8127L100.937 49.6392L101.996 49.4513L102.924 49.2778L103.944 49.0899L104.845 48.9019L105.839 48.6995L106.689 48.5116L107.656 48.2947L108.506 48.0923L109.407 47.8755L110.231 47.6586L111.094 47.4273L111.878 47.2105L112.702 46.9792L113.46 46.7478L114.231 46.5021L114.911 46.1406L115.643 45.8949L116.335 45.6491L117.015 45.4033L117.669 45.1431L118.309 44.8829L118.924 44.6082L119.512 44.348L120.087 44.0733L120.623 43.8131L121.159 43.5239L121.656 43.2493L122.139 42.9457L122.584 42.671L123.028 42.3674L123.42 42.0927L123.812 41.7746L124.087 41.5578V43.8854C124.087 49.2344 101.329 56.7087 64.2582 56.7087C27.1871 56.7087 4.41641 49.2923 4.41641 43.9432V41.6156ZM7.5928 72.7559L9.50126 80.5627C10.193 83.3892 10.3311 86.3465 9.90648 89.2368L7.85424 103.434H7.26601L8.48167 89.6705C8.77879 86.3613 8.43569 83.02 7.47516 79.8687L4.59941 70.385C3.7027 67.4509 3.41566 64.3311 3.75966 61.2574C4.10365 58.1838 5.06982 55.2355 6.58629 52.6318L7.5928 50.8681C8.7378 51.4771 9.91158 52.0176 11.1091 52.4872C9.16657 55.3468 7.84008 58.6591 7.23071 62.1717C6.62134 65.6842 6.74518 69.3043 7.5928 72.7559V72.7559ZM63.2647 88.6586H63.1994L62.0099 59.7446H64.4542L63.2647 88.6586ZM124.414 70.385L121.538 79.8687C120.577 83.0199 120.234 86.3613 120.531 89.6705L121.747 103.434H121.146L119.067 89.2802C118.642 86.3899 118.78 83.4324 119.473 80.606L121.381 72.7993C122.239 69.3134 122.359 65.6555 121.731 62.1101C121.103 58.5646 119.744 55.2272 117.76 52.3571C118.974 51.8652 120.161 51.2956 121.316 50.6512L122.466 52.6318C123.976 55.2389 124.935 58.1889 125.272 61.2625C125.61 64.336 125.316 67.4541 124.414 70.385V70.385Z" fill="#4C4E59"/>
<path d="M15.5926 40.0543C21.5401 43.8131 41.0952 46.3286 64.245 46.3286C87.3948 46.3286 106.937 43.7986 112.898 40.0398C114.388 39.1001 115.146 37.9725 115.146 36.7292C115.146 27.2599 66.3234 27.1442 64.245 27.1442C62.1667 27.1442 13.3442 27.2599 13.3442 36.7292C13.3442 37.9869 14.1285 39.1001 15.5926 40.0543ZM64.245 30.05C94.7411 30.05 111.512 34.3004 112.518 36.7292C112.273 37.0721 111.96 37.3489 111.603 37.5387C106.179 40.9506 86.2707 43.4372 64.245 43.4372C42.2194 43.4372 22.3114 40.965 16.8866 37.5532C16.5456 37.3484 16.233 37.0904 15.9586 36.787V36.787C16.7429 34.3438 33.5791 30.05 64.245 30.05V30.05Z" fill="#4C4E59"/>
</g>
</g>
<defs>
<clipPath id="clip0_755_2">
<rect width="127" height="85.3683" fill="white" transform="translate(1 21)"/>
</clipPath>
<clipPath id="clip1_755_2">
<rect width="127" height="85.3683" fill="white" transform="translate(1 21)"/>
</clipPath>
</defs>
</svg>
