<svg width="89" height="31" viewBox="0 0 89 31" fill="none" xmlns="http://www.w3.org/2000/svg">
<path d="M20.6326 26.8483C24.0596 26.8483 26.8377 24.0663 26.8377 20.6345C26.8377 17.2027 24.0596 14.4207 20.6326 14.4207C17.2056 14.4207 14.4275 17.2027 14.4275 20.6345C14.4275 24.0663 17.2056 26.8483 20.6326 26.8483Z" fill="#97CF26"/>
<path d="M8.96868 23.5268C10.5639 23.5268 11.857 22.2318 11.857 20.6344C11.857 19.0369 10.5639 17.7419 8.96868 17.7419C7.37348 17.7419 6.08032 19.0369 6.08032 20.6344C6.08032 22.2318 7.37348 23.5268 8.96868 23.5268Z" fill="#A169F7"/>
<path d="M20.6326 12.9537C22.8384 12.9537 24.6266 11.163 24.6266 8.95414C24.6266 6.74525 22.8384 4.95459 20.6326 4.95459C18.4268 4.95459 16.6387 6.74525 16.6387 8.95414C16.6387 11.163 18.4268 12.9537 20.6326 12.9537Z" fill="#FF6163"/>
<path d="M8.96867 14.0608C11.7851 14.0608 14.0682 11.7745 14.0682 8.95411C14.0682 6.13376 11.7851 3.84741 8.96867 3.84741C6.15228 3.84741 3.86914 6.13376 3.86914 8.95411C3.86914 11.7745 6.15228 14.0608 8.96867 14.0608Z" fill="#00AAFF"/>
<path d="M42.9699 23.4932H46.1911L40.2256 7.22705H37.8892L31.9226 23.4937H35.144L36.2833 20.3888H41.8306L42.9699 23.4937L37.1805 17.9409L39.0573 12.8259L40.9329 17.9409H37.1805L42.9699 23.4932ZM54.1762 12.388L51.2118 20.4685L48.2489 12.388H45.2223L49.297 23.4932H53.1273L57.2014 12.388H54.1756M58.4681 12.388H61.4947V23.4932H58.4681V12.388Z" fill="black"/>
<path d="M59.9917 11.1268C61.0679 11.1268 61.9403 10.2532 61.9403 9.17546C61.9403 8.09777 61.0679 7.22412 59.9917 7.22412C58.9155 7.22412 58.0431 8.09777 58.0431 9.17546C58.0431 10.2532 58.9155 11.1268 59.9917 11.1268Z" fill="black"/>
<path d="M72.1804 14.8353V12.3879H68.5549V9.32446H65.5303V12.3879H63.1367V14.8353H65.5303V19.6131C65.5303 22.0776 66.7608 23.7226 69.9029 23.7226C71.1163 23.7226 72.1804 23.2764 72.1804 23.2764L71.8128 20.8786C71.8128 20.8786 71.2172 21.0569 70.4847 21.0569C69.587 21.0569 68.5549 20.6694 68.5549 19.4266V14.835L72.1804 14.8353ZM79.1208 20.9547C77.4334 20.9547 76.066 19.6151 76.066 17.9627C76.066 16.3116 77.4334 14.9717 79.1202 14.9717C80.8082 14.9717 82.175 16.3119 82.175 17.9629C82.175 19.6154 80.8082 20.9547 79.1208 20.9547ZM79.1208 12.1045C75.8405 12.1045 73.1802 14.7104 73.1802 17.9225C73.1802 21.136 75.8405 23.7406 79.1205 23.7406C82.3991 23.7406 85.0595 21.136 85.0595 17.9225C85.0595 14.7104 82.3991 12.1045 79.1202 12.1045" fill="black"/>
</svg>
