<svg width="60" height="60" viewBox="0 0 60 60" fill="none" xmlns="http://www.w3.org/2000/svg">
<g clip-path="url(#clip0_280_6)">
<path d="M6.25001 52.5C4.59291 52.4983 3.00418 51.8393 1.83244 50.6676C0.660693 49.4958 0.00166335 47.9071 8.73484e-06 46.25V13.75C-0.0022577 12.3973 0.436587 11.0808 1.25001 10C1.83218 9.22377 2.5871 8.59375 3.45494 8.15983C4.32279 7.7259 5.27973 7.5 6.25001 7.5H53.75C54.7203 7.5 55.6772 7.7259 56.5451 8.15983C57.4129 8.59375 58.1678 9.22377 58.75 10C59.5635 11.0807 60.0024 12.3973 60 13.75V46.25C59.9983 47.9071 59.3393 49.4958 58.1676 50.6676C56.9958 51.8393 55.4071 52.4983 53.75 52.5H6.25001ZM6.25001 50H53.75C54.529 50.0009 55.2887 49.7578 55.9225 49.305L37.5213 30.9037L33.61 34.7538C32.6455 35.6973 31.3499 36.2257 30.0006 36.2257C28.6513 36.2257 27.3557 35.6973 26.3913 34.7538L22.48 30.9025L4.07876 49.3037C4.71209 49.7568 5.47133 50.0002 6.25001 50ZM2.50001 13.75V46.25C2.49904 47.0284 2.74161 47.7876 3.19375 48.4212L21.5888 30.0275L3.05753 11.7775C2.69101 12.37 2.49786 13.0533 2.50001 13.75ZM56.8063 48.4212C57.2585 47.7877 57.5011 47.0284 57.5 46.25V13.75C57.5007 13.0553 57.3072 12.3743 56.9413 11.7838L38.41 30.0338L56.8063 48.4212ZM27.2937 33.8662C28.0176 34.5732 28.9894 34.9691 30.0013 34.9691C31.0131 34.9691 31.9848 34.5732 32.7087 33.8662L56.105 10.8325C55.4389 10.2928 54.6073 9.99891 53.75 10H6.25001C5.39313 9.99909 4.56203 10.293 3.89626 10.8325L27.2937 33.8662Z" fill="#D9AB91"/>
</g>
<defs>
<clipPath id="clip0_280_6">
<rect width="60" height="60" fill="white"/>
</clipPath>
</defs>
</svg>
