<svg width="193" height="127" viewBox="0 0 193 127" fill="none" xmlns="http://www.w3.org/2000/svg">
<g clip-path="url(#clip0_276_447)">
<g clip-path="url(#clip1_276_447)">
<g clip-path="url(#clip2_276_447)">
<g clip-path="url(#clip3_276_447)">
<g clip-path="url(#clip4_276_447)">
<path d="M191.157 67.2359H1.71534C1.71271 67.2359 1.71057 67.238 1.71057 67.2406V69.342C1.71057 69.3447 1.71271 69.3468 1.71534 69.3468H191.157C191.16 69.3468 191.162 69.3447 191.162 69.342V67.2406C191.162 67.238 191.16 67.2359 191.157 67.2359Z" fill="#4C4E59"/>
<g clip-path="url(#clip5_276_447)">
<g clip-path="url(#clip6_276_447)">
<g clip-path="url(#clip7_276_447)">
<g clip-path="url(#clip8_276_447)">
<path d="M9.3138 95.8655C9.99666 95.8655 10.6286 95.7763 11.2097 95.5979C11.7908 95.4153 12.287 95.1562 12.6984 94.8207C13.1141 94.4809 13.4386 94.0774 13.6718 93.6102C13.9051 93.1473 14.0218 92.6291 14.0218 92.0557C14.0218 91.3846 13.8627 90.8155 13.5446 90.3483C13.2307 89.8811 12.8172 89.4712 12.304 89.1187C11.7908 88.7662 11.2033 88.4519 10.5417 88.1758C9.88003 87.8997 9.20564 87.6194 8.51854 87.3348C7.83567 87.0503 7.16341 86.7423 6.50175 86.411C5.84009 86.0798 5.25266 85.6763 4.73945 85.2006C4.22624 84.7206 3.8127 84.1579 3.49884 83.5123C3.18073 82.8624 3.02168 82.0767 3.02168 81.155C3.02168 80.1781 3.2083 79.3011 3.58155 78.5238C3.95479 77.7466 4.47436 77.0861 5.14026 76.5424C5.8104 75.9988 6.60354 75.5847 7.51969 75.3001C8.43583 75.0155 9.44316 74.8733 10.5417 74.8733C11.2118 74.8733 12.0559 74.937 13.0738 75.0644C14.0875 75.1961 15.1648 75.4318 16.3057 75.7716L15.7904 78.4792L15.4787 78.6321C14.9103 78.373 14.3568 78.1564 13.8182 77.9823C13.2795 77.8039 12.7727 77.6637 12.2976 77.5618C11.8183 77.4556 11.3772 77.3834 10.9743 77.3452C10.5714 77.3027 10.2193 77.2815 9.9182 77.2815C9.30744 77.2815 8.75606 77.3558 8.26405 77.5045C7.77205 77.6574 7.35215 77.8761 7.00436 78.1607C6.6608 78.4452 6.39147 78.7914 6.19637 79.1991C6.00551 79.6111 5.91008 80.0762 5.91008 80.5944C5.91008 81.2909 6.06913 81.8813 6.38723 82.3655C6.7011 82.8539 7.11887 83.285 7.64057 83.6588C8.1665 84.0326 8.7603 84.3638 9.42196 84.6527C10.0836 84.9457 10.7601 85.2367 11.4515 85.5255C12.1386 85.8143 12.813 86.1244 13.4746 86.4556C14.1363 86.7869 14.7301 87.1734 15.256 87.6152C15.7777 88.0569 16.1976 88.5793 16.5157 89.1824C16.8296 89.7813 16.9865 90.5012 16.9865 91.3422C16.9865 92.2638 16.7871 93.143 16.3885 93.9797C15.9898 94.8122 15.4299 95.547 14.7089 96.1841C13.9921 96.8254 13.1289 97.3351 12.1195 97.7131C11.11 98.0911 9.99242 98.2801 8.76666 98.2801C8.24921 98.2801 7.70843 98.244 7.14432 98.1718C6.58022 98.0996 6.01399 97.9977 5.44564 97.866C4.87729 97.7386 4.31531 97.5814 3.75969 97.3946C3.2083 97.2077 2.68237 96.9996 2.18188 96.7702L2.70994 94.0498L3.02168 93.8905C4.07779 94.5021 5.14662 94.9842 6.22818 95.3367C7.30974 95.6893 8.33828 95.8655 9.3138 95.8655ZM25.7153 97.9679H22.6678V75.1791H25.7153V84.8693H37.956V75.1791H40.9971V97.9679H37.956V87.2839H25.7153V97.9679ZM50.8138 75.1791V97.9679H47.7663V75.1791H50.8138ZM60.6305 75.1791V97.9679H57.5831V75.1791H60.6305ZM75.8041 97.9679H71.9169L62.0747 86.4556L71.4524 75.1791H74.8689L65.084 86.067L75.8041 97.9679ZM83.3177 75.1791V97.9679H80.2767V75.1791H83.3177ZM98.4914 97.9679H94.6105L84.7619 86.4556L94.146 75.1791H97.5625L87.7776 86.067L98.4914 97.9679ZM116.089 97.9679H102.964V75.1791H116.312L115.841 77.5937H106.011V84.8693H114.772L114.308 87.2839H106.011V95.5597H116.56L116.089 97.9679ZM129.201 88.883H125.021V97.9679H121.974V75.1791H128.406C129.526 75.1791 130.552 75.3362 131.485 75.6505C132.414 75.9606 133.211 76.3874 133.877 76.9311C134.539 77.4747 135.052 78.1161 135.417 78.8551C135.786 79.5899 135.97 80.382 135.97 81.2315C135.97 81.979 135.837 82.6755 135.57 83.3211C135.298 83.971 134.946 84.5677 134.514 85.1114C134.077 85.655 133.58 86.1456 133.025 86.5831C132.473 87.0163 131.918 87.3943 131.358 87.7171L138.051 97.9679H134.405L129.201 88.883ZM125.021 77.5937V86.4748H130.066C130.503 86.2369 130.896 85.946 131.243 85.6019C131.587 85.2621 131.88 84.8863 132.121 84.4743C132.359 84.0665 132.541 83.6333 132.669 83.1746C132.8 82.7201 132.866 82.2529 132.866 81.773C132.866 81.1826 132.762 80.6305 132.554 80.1165C132.346 79.6069 132.032 79.1652 131.612 78.7914C131.193 78.4176 130.667 78.1246 130.035 77.9122C129.407 77.6998 128.667 77.5937 127.814 77.5937H125.021ZM157.684 97.9679L155.528 91.7754H145.711L143.58 97.9679H140.704L149.172 75.1791H152.404L160.884 97.9679H157.684ZM146.532 89.399H154.669L151.659 80.4988L150.775 77.3261H150.463L149.579 80.4988L146.532 89.399ZM167.514 97.9679H164.797L166.521 75.1791H171.089L176.707 91.0937L177.579 94.0625H177.89L178.743 91.0937L184.38 75.1791H188.967L190.691 97.9679H187.688L186.479 80.0783L186.358 76.8164H186.059L185.162 79.9254L179.01 97.5029H176.262L170.046 79.9573L169.117 76.8164H168.818L168.729 80.0465L167.514 97.9679Z" fill="#4C4E59"/>
</g>
</g>
</g>
</g>
<g clip-path="url(#clip9_276_447)">
<g clip-path="url(#clip10_276_447)">
<path d="M143.496 20.4242C145.121 19.2867 146.018 18.0239 146.018 16.6463V11.4282C146.018 4.06027 120.37 0.0840759 96.2331 0.0840759C72.0964 0.0840759 46.4486 4.07071 46.4486 11.4387V16.6568C46.4486 18.1178 47.4907 19.4432 49.2624 20.6225L48.5121 21.7914C47.132 23.9334 46.2523 26.3596 45.9383 28.8892C45.6243 31.4189 45.8843 33.9869 46.6987 36.4021L48.981 43.2795C49.6509 45.2763 49.889 47.393 49.6793 49.489L48.5016 61.6785H53.0455L54.984 49.7186C55.3757 47.3301 55.2513 44.8853 54.6192 42.549L53.1497 36.903C52.5249 34.6028 52.4609 32.1859 52.9633 29.8558C53.4657 27.5257 54.5196 25.3505 56.0365 23.5133C64.8637 26.1955 78.6621 27.6878 92.4396 27.9487L93.4818 50.971H97.5254L98.5676 28.0113C112.97 27.8339 127.665 26.2685 136.805 23.4507C138.353 25.2918 139.431 27.4814 139.949 29.8316C140.466 32.1818 140.406 34.6226 139.775 36.9447L138.253 42.5803C137.617 44.9157 137.489 47.3607 137.878 49.75L139.817 61.7098H144.361L143.183 49.4473C142.979 47.3651 143.217 45.2632 143.881 43.2795L146.174 36.4334C146.988 34.0182 147.248 31.4502 146.934 28.9205C146.62 26.3909 145.741 23.9647 144.361 21.8227L143.496 20.4242ZM96.2331 2.18175C125.789 2.18175 143.933 7.57727 143.933 11.4387C143.871 11.8003 143.736 12.1456 143.537 12.454C143.338 12.7624 143.08 13.0276 142.776 13.2337C137.441 17.5647 117.879 20.706 96.2539 20.706C74.6289 20.706 55.0673 17.5751 49.7314 13.2441C49.4236 13.0384 49.1605 12.7724 48.9581 12.4621C48.7557 12.1518 48.6182 11.8036 48.5538 11.4387C48.5329 7.57727 66.698 2.18175 96.2331 2.18175ZM48.5329 14.9661L48.7622 15.1331L49.0644 15.3522L49.3875 15.561L49.7314 15.7697L50.0962 15.9784L50.4818 16.1871L50.8778 16.3854L51.2947 16.5941L51.722 16.782L52.1805 16.9803L52.6391 17.1681L53.1393 17.3664L53.6396 17.5438L54.1711 17.7317L54.6921 17.9091L55.2653 18.097L55.8281 18.2639L56.4222 18.4414L57.0162 18.6083L57.6519 18.7857L58.2668 18.9423L58.9338 19.1093L59.5799 19.2658L60.2782 19.4328L60.9348 19.5789L61.6747 19.7354L62.3521 19.8711L63.1233 20.0277L63.8424 20.1633L64.6136 20.3199L65.364 20.4451L66.1769 20.5808L66.9272 20.6956L67.7818 20.8312L68.5634 20.946L69.4284 21.0713L70.2518 21.1861L71.1168 21.3009L71.9088 21.3635L72.8363 21.4783L73.6597 21.5722L74.608 21.6766L75.5147 21.7705L76.4214 21.8644L77.3385 21.9479L78.2765 22.0314L79.2144 22.1045L80.1524 22.1775L81.1946 22.2506L82.1013 22.3132L83.1434 22.3758H84.0188L85.061 22.428H85.9469H86.989H87.9687H89.0109H89.9905H91.1577H92.0331H93.2838H99.1199H100.339H101.131H102.392H103.184H104.414H105.3H106.415H107.28L108.385 22.4593H109.229L110.334 22.3967L111.199 22.3341L112.241 22.261L113.106 22.188L114.148 22.1045L114.961 22.0314L116.003 21.9375L116.826 21.854L117.869 21.7496L118.671 21.6661L119.64 21.5618L120.422 21.4678L121.381 21.3531L122.162 21.2487L123.069 21.1235L123.861 21.0087L124.726 20.8834L125.487 20.7582L126.331 20.6225L127.071 20.4973L127.884 20.3616L128.603 20.2259L129.395 20.0798L130.072 19.9442L130.844 19.7876L131.521 19.6415L132.24 19.485L132.897 19.3284L133.585 19.1614L134.21 19.0049L134.866 18.8379L135.471 18.6709L136.086 18.4935L136.628 18.2326L137.211 18.0552L137.764 17.8778L138.306 17.7004L138.827 17.5125L139.337 17.3247L139.827 17.1264L140.296 16.9385L140.755 16.7403L141.182 16.5524L141.609 16.3437L142.005 16.1454L142.391 15.9262L142.745 15.7279L143.1 15.5088L143.412 15.3105L143.725 15.0809L143.944 14.9244V16.6046C143.944 20.466 125.8 25.8615 96.2435 25.8615C66.6875 25.8615 48.5329 20.5077 48.5329 16.6463V14.9661ZM51.0654 37.4457L52.587 43.0812C53.1384 45.1217 53.2486 47.2565 52.91 49.3429L51.2738 59.5913H50.8048L51.7741 49.656C52.011 47.2672 51.7374 44.8551 50.9716 42.5803L48.6788 35.7341C47.9639 33.6161 47.735 31.364 48.0093 29.1451C48.2836 26.9263 49.0539 24.798 50.2629 22.9185L51.0654 21.6453C51.9783 22.0849 52.9141 22.4751 53.8688 22.8141C52.3201 24.8784 51.2625 27.2695 50.7767 29.8051C50.2909 32.3408 50.3896 34.954 51.0654 37.4457ZM95.4515 48.9255H95.3994L94.451 28.0531H96.3998L95.4515 48.9255ZM144.204 35.7341L141.911 42.5803C141.145 44.8551 140.872 47.2671 141.109 49.656L142.078 59.5913H141.599L139.942 49.3742C139.603 47.2878 139.713 45.1529 140.265 43.1125L141.786 37.477C142.471 34.9606 142.566 32.32 142.066 29.7607C141.565 27.2013 140.482 24.792 138.9 22.7202C139.868 22.3651 140.814 21.9539 141.734 21.4887L142.651 22.9185C143.855 24.8005 144.62 26.93 144.889 29.1488C145.158 31.3675 144.924 33.6184 144.204 35.7341Z" fill="#4C4E59"/>
<path d="M57.4435 13.839C62.1854 16.5524 77.7763 18.3683 96.2332 18.3683C114.69 18.3683 130.27 16.542 135.023 13.8286C136.211 13.1502 136.815 12.3362 136.815 11.4387C136.815 4.60296 97.8902 4.51947 96.2332 4.51947C94.5761 4.51947 55.651 4.60296 55.651 11.4387C55.651 12.3466 56.2763 13.1502 57.4435 13.839ZM96.2332 6.61714C120.547 6.61714 133.918 9.68539 134.721 11.4387C134.525 11.6862 134.275 11.8861 133.991 12.0231C129.666 14.486 113.794 16.2811 96.2332 16.2811C78.6726 16.2811 62.8003 14.4965 58.4753 12.0335C58.2034 11.8857 57.9542 11.6994 57.7353 11.4804C58.3606 9.7167 71.7838 6.61714 96.2332 6.61714Z" fill="#4C4E59"/>
</g>
</g>
</g>
</g>
</g>
</g>
</g>
<path d="M22.8926 114.305L20.0726 106.793H20.0246C20.0406 106.953 20.0526 107.157 20.0606 107.405C20.0766 107.653 20.0886 107.925 20.0966 108.221C20.1046 108.509 20.1086 108.805 20.1086 109.109V114.305H19.1126V105.737H20.7086L23.3486 112.757H23.3966L26.0846 105.737H27.6686V114.305H26.6006V109.037C26.6006 108.757 26.6046 108.481 26.6126 108.209C26.6206 107.929 26.6326 107.669 26.6486 107.429C26.6646 107.181 26.6766 106.973 26.6846 106.805H26.6366L23.7806 114.305H22.8926ZM32.3393 107.753C32.8913 107.753 33.3633 107.873 33.7553 108.113C34.1553 108.353 34.4593 108.693 34.6673 109.133C34.8833 109.565 34.9913 110.073 34.9913 110.657V111.293H30.5873C30.6033 112.021 30.7873 112.577 31.1393 112.961C31.4993 113.337 31.9993 113.525 32.6393 113.525C33.0473 113.525 33.4073 113.489 33.7193 113.417C34.0393 113.337 34.3673 113.225 34.7033 113.081V114.005C34.3753 114.149 34.0513 114.253 33.7313 114.317C33.4113 114.389 33.0313 114.425 32.5913 114.425C31.9833 114.425 31.4433 114.301 30.9713 114.053C30.5073 113.805 30.1433 113.437 29.8793 112.949C29.6233 112.453 29.4953 111.849 29.4953 111.137C29.4953 110.433 29.6113 109.829 29.8433 109.325C30.0833 108.821 30.4153 108.433 30.8393 108.161C31.2713 107.889 31.7713 107.753 32.3393 107.753ZM32.3273 108.617C31.8233 108.617 31.4233 108.781 31.1273 109.109C30.8393 109.429 30.6673 109.877 30.6113 110.453H33.8873C33.8873 110.085 33.8313 109.765 33.7193 109.493C33.6073 109.221 33.4353 109.009 33.2033 108.857C32.9793 108.697 32.6873 108.617 32.3273 108.617ZM36.2928 110.441C36.2928 109.505 36.3848 108.709 36.5688 108.053C36.7608 107.389 37.0528 106.861 37.4448 106.469C37.8448 106.069 38.3568 105.801 38.9808 105.665C39.5008 105.553 40.0088 105.453 40.5048 105.365C41.0008 105.277 41.4648 105.197 41.8968 105.125L42.0768 106.049C41.8688 106.081 41.6368 106.121 41.3808 106.169C41.1248 106.209 40.8648 106.253 40.6008 106.301C40.3368 106.341 40.0808 106.385 39.8328 106.433C39.5928 106.473 39.3808 106.513 39.1968 106.553C38.9328 106.609 38.6968 106.705 38.4888 106.841C38.2808 106.969 38.1008 107.145 37.9488 107.369C37.8048 107.593 37.6888 107.869 37.6008 108.197C37.5128 108.525 37.4608 108.913 37.4448 109.361H37.5168C37.6288 109.209 37.7808 109.053 37.9728 108.893C38.1728 108.733 38.4088 108.597 38.6808 108.485C38.9608 108.373 39.2768 108.317 39.6288 108.317C40.1888 108.317 40.6528 108.441 41.0208 108.689C41.3968 108.929 41.6768 109.265 41.8608 109.697C42.0528 110.129 42.1488 110.633 42.1488 111.209C42.1488 111.921 42.0248 112.517 41.7768 112.997C41.5288 113.477 41.1848 113.837 40.7448 114.077C40.3048 114.309 39.7928 114.425 39.2088 114.425C38.7688 114.425 38.3688 114.341 38.0088 114.173C37.6488 113.997 37.3408 113.741 37.0848 113.405C36.8288 113.069 36.6328 112.653 36.4968 112.157C36.3608 111.661 36.2928 111.089 36.2928 110.441ZM39.2928 113.549C39.6448 113.549 39.9488 113.477 40.2048 113.333C40.4688 113.189 40.6728 112.953 40.8168 112.625C40.9608 112.297 41.0328 111.861 41.0328 111.317C41.0328 110.661 40.9088 110.145 40.6608 109.769C40.4208 109.385 40.0208 109.193 39.4608 109.193C39.1088 109.193 38.7888 109.273 38.5008 109.433C38.2128 109.585 37.9728 109.761 37.7808 109.961C37.5888 110.161 37.4528 110.329 37.3728 110.465C37.3728 110.857 37.4008 111.237 37.4568 111.605C37.5128 111.973 37.6088 112.305 37.7448 112.601C37.8888 112.889 38.0848 113.121 38.3328 113.297C38.5888 113.465 38.9088 113.549 39.2928 113.549ZM46.2964 107.753C46.8484 107.753 47.3204 107.873 47.7124 108.113C48.1124 108.353 48.4164 108.693 48.6244 109.133C48.8404 109.565 48.9484 110.073 48.9484 110.657V111.293H44.5444C44.5604 112.021 44.7444 112.577 45.0964 112.961C45.4564 113.337 45.9564 113.525 46.5964 113.525C47.0044 113.525 47.3644 113.489 47.6764 113.417C47.9964 113.337 48.3244 113.225 48.6604 113.081V114.005C48.3324 114.149 48.0084 114.253 47.6884 114.317C47.3684 114.389 46.9884 114.425 46.5484 114.425C45.9404 114.425 45.4004 114.301 44.9284 114.053C44.4644 113.805 44.1004 113.437 43.8364 112.949C43.5804 112.453 43.4524 111.849 43.4524 111.137C43.4524 110.433 43.5684 109.829 43.8004 109.325C44.0404 108.821 44.3724 108.433 44.7964 108.161C45.2284 107.889 45.7284 107.753 46.2964 107.753ZM46.2844 108.617C45.7804 108.617 45.3804 108.781 45.0844 109.109C44.7964 109.429 44.6244 109.877 44.5684 110.453H47.8444C47.8444 110.085 47.7884 109.765 47.6764 109.493C47.5644 109.221 47.3924 109.009 47.1604 108.857C46.9364 108.697 46.6444 108.617 46.2844 108.617ZM55.4818 114.305H54.4138V108.749H52.5178C52.4378 109.765 52.3378 110.633 52.2178 111.353C52.0978 112.065 51.9458 112.645 51.7618 113.093C51.5778 113.541 51.3578 113.869 51.1018 114.077C50.8458 114.285 50.5458 114.389 50.2018 114.389C50.0978 114.389 49.9938 114.381 49.8898 114.365C49.7938 114.357 49.7138 114.337 49.6498 114.305V113.513C49.6978 113.529 49.7498 113.541 49.8058 113.549C49.8618 113.557 49.9178 113.561 49.9738 113.561C50.1498 113.561 50.3098 113.489 50.4538 113.345C50.5978 113.201 50.7258 112.981 50.8378 112.685C50.9578 112.389 51.0658 112.017 51.1618 111.569C51.2578 111.113 51.3418 110.577 51.4138 109.961C51.4858 109.345 51.5498 108.649 51.6058 107.873H55.4818V114.305ZM60.4873 110.513C61.0473 110.513 61.5113 110.581 61.8793 110.717C62.2473 110.853 62.5233 111.057 62.7073 111.329C62.8993 111.593 62.9953 111.929 62.9953 112.337C62.9953 112.737 62.9033 113.085 62.7193 113.381C62.5433 113.677 62.2673 113.905 61.8913 114.065C61.5153 114.225 61.0313 114.305 60.4393 114.305H57.5233V107.873H58.5793V110.513H60.4873ZM61.9393 112.397C61.9393 112.005 61.7993 111.741 61.5193 111.605C61.2473 111.461 60.8633 111.389 60.3673 111.389H58.5793V113.453H60.3913C60.8393 113.453 61.2073 113.373 61.4953 113.213C61.7913 113.053 61.9393 112.781 61.9393 112.397ZM69.783 114.425C69.215 114.425 68.707 114.309 68.259 114.077C67.819 113.845 67.471 113.485 67.215 112.997C66.967 112.509 66.843 111.885 66.843 111.125C66.843 110.333 66.975 109.689 67.239 109.193C67.503 108.697 67.859 108.333 68.307 108.101C68.763 107.869 69.279 107.753 69.855 107.753C70.183 107.753 70.499 107.789 70.803 107.861C71.107 107.925 71.355 108.005 71.547 108.101L71.223 108.977C71.031 108.905 70.807 108.837 70.551 108.773C70.295 108.709 70.055 108.677 69.831 108.677C69.399 108.677 69.043 108.769 68.763 108.953C68.483 109.137 68.275 109.409 68.139 109.769C68.003 110.129 67.935 110.577 67.935 111.113C67.935 111.625 68.003 112.061 68.139 112.421C68.275 112.781 68.479 113.053 68.751 113.237C69.023 113.421 69.363 113.513 69.771 113.513C70.123 113.513 70.431 113.477 70.695 113.405C70.967 113.333 71.215 113.245 71.439 113.141V114.077C71.223 114.189 70.983 114.273 70.719 114.329C70.463 114.393 70.151 114.425 69.783 114.425ZM79.3273 107.873H80.4793L77.7313 110.969L80.7073 114.305H79.4833L76.5793 111.041V114.305H75.5233V107.873H76.5793V110.993L79.3273 107.873ZM84.1245 107.753C84.6765 107.753 85.1485 107.873 85.5405 108.113C85.9405 108.353 86.2445 108.693 86.4525 109.133C86.6685 109.565 86.7765 110.073 86.7765 110.657V111.293H82.3725C82.3885 112.021 82.5725 112.577 82.9245 112.961C83.2845 113.337 83.7845 113.525 84.4245 113.525C84.8325 113.525 85.1925 113.489 85.5045 113.417C85.8245 113.337 86.1525 113.225 86.4885 113.081V114.005C86.1605 114.149 85.8365 114.253 85.5165 114.317C85.1965 114.389 84.8165 114.425 84.3765 114.425C83.7685 114.425 83.2285 114.301 82.7565 114.053C82.2925 113.805 81.9285 113.437 81.6645 112.949C81.4085 112.453 81.2805 111.849 81.2805 111.137C81.2805 110.433 81.3965 109.829 81.6285 109.325C81.8685 108.821 82.2005 108.433 82.6245 108.161C83.0565 107.889 83.5565 107.753 84.1245 107.753ZM84.1125 108.617C83.6085 108.617 83.2085 108.781 82.9125 109.109C82.6245 109.429 82.4525 109.877 82.3965 110.453H85.6725C85.6725 110.085 85.6165 109.765 85.5045 109.493C85.3925 109.221 85.2205 109.009 84.9885 108.857C84.7645 108.697 84.4725 108.617 84.1125 108.617ZM91.4739 107.753C92.2659 107.753 92.9019 108.029 93.3819 108.581C93.8699 109.133 94.1139 109.965 94.1139 111.077C94.1139 111.805 94.0019 112.421 93.7779 112.925C93.5619 113.421 93.2539 113.797 92.8539 114.053C92.4619 114.301 91.9979 114.425 91.4619 114.425C91.1339 114.425 90.8419 114.381 90.5859 114.293C90.3299 114.205 90.1099 114.093 89.9259 113.957C89.7499 113.813 89.5979 113.657 89.4699 113.489H89.3979C89.4139 113.625 89.4299 113.797 89.4459 114.005C89.4619 114.213 89.4699 114.393 89.4699 114.545V117.185H88.4139V107.873H89.2779L89.4219 108.749H89.4699C89.5979 108.565 89.7499 108.397 89.9259 108.245C90.1099 108.093 90.3259 107.973 90.5739 107.885C90.8299 107.797 91.1299 107.753 91.4739 107.753ZM91.2819 108.641C90.8499 108.641 90.5019 108.725 90.2379 108.893C89.9739 109.053 89.7819 109.297 89.6619 109.625C89.5419 109.953 89.4779 110.369 89.4699 110.873V111.077C89.4699 111.605 89.5259 112.053 89.6379 112.421C89.7499 112.789 89.9379 113.069 90.2019 113.261C90.4739 113.453 90.8419 113.549 91.3059 113.549C91.6979 113.549 92.0179 113.441 92.2659 113.225C92.5219 113.009 92.7099 112.717 92.8299 112.349C92.9579 111.973 93.0219 111.545 93.0219 111.065C93.0219 110.329 92.8779 109.741 92.5899 109.301C92.3099 108.861 91.8739 108.641 91.2819 108.641ZM98.2327 107.765C99.0167 107.765 99.5967 107.937 99.9727 108.281C100.349 108.625 100.537 109.173 100.537 109.925V114.305H99.7687L99.5647 113.393H99.5167C99.3327 113.625 99.1407 113.821 98.9407 113.981C98.7487 114.133 98.5247 114.245 98.2687 114.317C98.0207 114.389 97.7167 114.425 97.3567 114.425C96.9727 114.425 96.6247 114.357 96.3127 114.221C96.0087 114.085 95.7687 113.877 95.5927 113.597C95.4167 113.309 95.3287 112.949 95.3287 112.517C95.3287 111.877 95.5807 111.385 96.0847 111.041C96.5887 110.689 97.3647 110.497 98.4127 110.465L99.5047 110.429V110.045C99.5047 109.509 99.3887 109.137 99.1567 108.929C98.9247 108.721 98.5967 108.617 98.1727 108.617C97.8367 108.617 97.5167 108.669 97.2127 108.773C96.9087 108.869 96.6247 108.981 96.3607 109.109L96.0367 108.317C96.3167 108.165 96.6487 108.037 97.0327 107.933C97.4167 107.821 97.8167 107.765 98.2327 107.765ZM98.5447 111.197C97.7447 111.229 97.1887 111.357 96.8767 111.581C96.5727 111.805 96.4207 112.121 96.4207 112.529C96.4207 112.889 96.5287 113.153 96.7447 113.321C96.9687 113.489 97.2527 113.573 97.5967 113.573C98.1407 113.573 98.5927 113.425 98.9527 113.129C99.3127 112.825 99.4927 112.361 99.4927 111.737V111.161L98.5447 111.197ZM109.423 107.873V114.305H108.475V110.201C108.475 110.033 108.479 109.857 108.487 109.673C108.503 109.489 108.519 109.309 108.535 109.133H108.499L106.399 114.305H105.511L103.471 109.133H103.435C103.451 109.309 103.459 109.489 103.459 109.673C103.467 109.857 103.471 110.045 103.471 110.237V114.305H102.523V107.873H103.927L105.955 113.045L108.019 107.873H109.423ZM117.068 111.077C117.068 111.613 116.996 112.089 116.852 112.505C116.716 112.913 116.516 113.261 116.252 113.549C115.996 113.837 115.68 114.057 115.304 114.209C114.936 114.353 114.524 114.425 114.068 114.425C113.644 114.425 113.252 114.353 112.892 114.209C112.532 114.057 112.22 113.837 111.956 113.549C111.692 113.261 111.484 112.913 111.332 112.505C111.188 112.089 111.116 111.613 111.116 111.077C111.116 110.365 111.236 109.765 111.476 109.277C111.716 108.781 112.06 108.405 112.508 108.149C112.956 107.885 113.488 107.753 114.104 107.753C114.688 107.753 115.2 107.885 115.64 108.149C116.088 108.405 116.436 108.781 116.684 109.277C116.94 109.765 117.068 110.365 117.068 111.077ZM112.208 111.077C112.208 111.581 112.272 112.021 112.4 112.397C112.536 112.765 112.744 113.049 113.024 113.249C113.304 113.449 113.66 113.549 114.092 113.549C114.524 113.549 114.88 113.449 115.16 113.249C115.44 113.049 115.644 112.765 115.772 112.397C115.908 112.021 115.976 111.581 115.976 111.077C115.976 110.565 115.908 110.129 115.772 109.769C115.636 109.409 115.428 109.133 115.148 108.941C114.876 108.741 114.52 108.641 114.08 108.641C113.424 108.641 112.948 108.857 112.652 109.289C112.356 109.721 112.208 110.317 112.208 111.077ZM122.666 107.873V108.761H119.798V114.305H118.742V107.873H122.666ZM126.993 107.753C127.785 107.753 128.421 108.029 128.901 108.581C129.389 109.133 129.633 109.965 129.633 111.077C129.633 111.805 129.521 112.421 129.297 112.925C129.081 113.421 128.773 113.797 128.373 114.053C127.981 114.301 127.517 114.425 126.981 114.425C126.653 114.425 126.361 114.381 126.105 114.293C125.849 114.205 125.629 114.093 125.445 113.957C125.269 113.813 125.117 113.657 124.989 113.489H124.917C124.933 113.625 124.949 113.797 124.965 114.005C124.981 114.213 124.989 114.393 124.989 114.545V117.185H123.933V107.873H124.797L124.941 108.749H124.989C125.117 108.565 125.269 108.397 125.445 108.245C125.629 108.093 125.845 107.973 126.093 107.885C126.349 107.797 126.649 107.753 126.993 107.753ZM126.801 108.641C126.369 108.641 126.021 108.725 125.757 108.893C125.493 109.053 125.301 109.297 125.181 109.625C125.061 109.953 124.997 110.369 124.989 110.873V111.077C124.989 111.605 125.045 112.053 125.157 112.421C125.269 112.789 125.457 113.069 125.721 113.261C125.993 113.453 126.361 113.549 126.825 113.549C127.217 113.549 127.537 113.441 127.785 113.225C128.041 113.009 128.229 112.717 128.349 112.349C128.477 111.973 128.541 111.545 128.541 111.065C128.541 110.329 128.397 109.741 128.109 109.301C127.829 108.861 127.393 108.641 126.801 108.641ZM133.752 107.765C134.536 107.765 135.116 107.937 135.492 108.281C135.868 108.625 136.056 109.173 136.056 109.925V114.305H135.288L135.084 113.393H135.036C134.852 113.625 134.66 113.821 134.46 113.981C134.268 114.133 134.044 114.245 133.788 114.317C133.54 114.389 133.236 114.425 132.876 114.425C132.492 114.425 132.144 114.357 131.832 114.221C131.528 114.085 131.288 113.877 131.112 113.597C130.936 113.309 130.848 112.949 130.848 112.517C130.848 111.877 131.1 111.385 131.604 111.041C132.108 110.689 132.884 110.497 133.932 110.465L135.024 110.429V110.045C135.024 109.509 134.908 109.137 134.676 108.929C134.444 108.721 134.116 108.617 133.692 108.617C133.356 108.617 133.036 108.669 132.732 108.773C132.428 108.869 132.144 108.981 131.88 109.109L131.556 108.317C131.836 108.165 132.168 108.037 132.552 107.933C132.936 107.821 133.336 107.765 133.752 107.765ZM134.064 111.197C133.264 111.229 132.708 111.357 132.396 111.581C132.092 111.805 131.94 112.121 131.94 112.529C131.94 112.889 132.048 113.153 132.264 113.321C132.488 113.489 132.772 113.573 133.116 113.573C133.66 113.573 134.112 113.425 134.472 113.129C134.832 112.825 135.012 112.361 135.012 111.737V111.161L134.064 111.197ZM139.099 107.873V110.549H142.591V107.873H143.647V114.305H142.591V111.437H139.099V114.305H138.043V107.873H139.099ZM146.679 111.797C146.679 111.869 146.675 111.973 146.667 112.109C146.667 112.237 146.663 112.377 146.655 112.529C146.647 112.673 146.639 112.813 146.631 112.949C146.623 113.077 146.615 113.181 146.607 113.261L150.051 107.873H151.347V114.305H150.363V110.513C150.363 110.385 150.363 110.217 150.363 110.009C150.371 109.801 150.379 109.597 150.387 109.397C150.395 109.189 150.403 109.033 150.411 108.929L146.991 114.305H145.683V107.873H146.679V111.797ZM157.834 108.761H155.734V114.305H154.69V108.761H152.614V107.873H157.834V108.761ZM164.576 111.077C164.576 111.613 164.504 112.089 164.36 112.505C164.224 112.913 164.024 113.261 163.76 113.549C163.504 113.837 163.188 114.057 162.812 114.209C162.444 114.353 162.032 114.425 161.576 114.425C161.152 114.425 160.76 114.353 160.4 114.209C160.04 114.057 159.728 113.837 159.464 113.549C159.2 113.261 158.992 112.913 158.84 112.505C158.696 112.089 158.624 111.613 158.624 111.077C158.624 110.365 158.744 109.765 158.984 109.277C159.224 108.781 159.568 108.405 160.016 108.149C160.464 107.885 160.996 107.753 161.612 107.753C162.196 107.753 162.708 107.885 163.148 108.149C163.596 108.405 163.944 108.781 164.192 109.277C164.448 109.765 164.576 110.365 164.576 111.077ZM159.716 111.077C159.716 111.581 159.78 112.021 159.908 112.397C160.044 112.765 160.252 113.049 160.532 113.249C160.812 113.449 161.168 113.549 161.6 113.549C162.032 113.549 162.388 113.449 162.668 113.249C162.948 113.049 163.152 112.765 163.28 112.397C163.416 112.021 163.484 111.581 163.484 111.077C163.484 110.565 163.416 110.129 163.28 109.769C163.144 109.409 162.936 109.133 162.656 108.941C162.384 108.741 162.028 108.641 161.588 108.641C160.932 108.641 160.456 108.857 160.16 109.289C159.864 109.721 159.716 110.317 159.716 111.077ZM173.15 107.873V114.305H172.202V110.201C172.202 110.033 172.206 109.857 172.214 109.673C172.23 109.489 172.246 109.309 172.262 109.133H172.226L170.126 114.305H169.238L167.198 109.133H167.162C167.178 109.309 167.186 109.489 167.186 109.673C167.194 109.857 167.198 110.045 167.198 110.237V114.305H166.25V107.873H167.654L169.682 113.045L171.746 107.873H173.15Z" fill="#4C4E59"/>
<defs>
<clipPath id="clip0_276_447">
<rect width="189.679" height="119.284" fill="white" transform="translate(1.63525 0.0840759)"/>
</clipPath>
<clipPath id="clip1_276_447">
<rect width="189.679" height="119.284" fill="white" transform="translate(1.59692 0.13237)"/>
</clipPath>
<clipPath id="clip2_276_447">
<rect width="189.452" height="119.38" fill="white" transform="translate(1.71057 0.0840759)"/>
</clipPath>
<clipPath id="clip3_276_447">
<rect width="189.452" height="119.38" fill="white" transform="translate(1.71057 0.0840759)"/>
</clipPath>
<clipPath id="clip4_276_447">
<rect width="189.452" height="119.38" fill="white" transform="translate(1.71057 0.0840759)"/>
</clipPath>
<clipPath id="clip5_276_447">
<rect width="188.509" height="44.5917" fill="white" transform="translate(2.18188 74.8728)"/>
</clipPath>
<clipPath id="clip6_276_447">
<rect width="188.509" height="44.5917" fill="white" transform="translate(2.18188 74.8728)"/>
</clipPath>
<clipPath id="clip7_276_447">
<rect width="188.509" height="23.4078" fill="white" transform="translate(2.18188 74.8728)"/>
</clipPath>
<clipPath id="clip8_276_447">
<rect width="188.509" height="23.4078" fill="white" transform="translate(2.18188 74.8728)"/>
</clipPath>
<clipPath id="clip9_276_447">
<rect width="101.254" height="61.6258" fill="white" transform="translate(45.8091 0.0840759)"/>
</clipPath>
<clipPath id="clip10_276_447">
<rect width="101.254" height="61.6258" fill="white" transform="translate(45.8091 0.0840759)"/>
</clipPath>
</defs>
</svg>
