<svg width="186" height="117" viewBox="0 0 186 117" fill="none" xmlns="http://www.w3.org/2000/svg">
<g clip-path="url(#clip0_276_49)">
<path d="M19.0714 111.631L16.2514 104.119H16.2034C16.2194 104.279 16.2314 104.483 16.2394 104.731C16.2554 104.979 16.2674 105.251 16.2754 105.547C16.2834 105.835 16.2874 106.131 16.2874 106.435V111.631H15.2914V103.063H16.8874L19.5274 110.083H19.5754L22.2634 103.063H23.8474V111.631H22.7794V106.363C22.7794 106.083 22.7834 105.807 22.7914 105.535C22.7994 105.255 22.8114 104.995 22.8274 104.755C22.8434 104.507 22.8554 104.299 22.8634 104.131H22.8154L19.9594 111.631H19.0714ZM28.5182 105.079C29.0702 105.079 29.5422 105.199 29.9342 105.439C30.3342 105.679 30.6382 106.019 30.8462 106.459C31.0622 106.891 31.1702 107.399 31.1702 107.983V108.619H26.7662C26.7822 109.347 26.9662 109.903 27.3182 110.287C27.6782 110.663 28.1782 110.851 28.8182 110.851C29.2262 110.851 29.5862 110.815 29.8982 110.743C30.2182 110.663 30.5462 110.551 30.8822 110.407V111.331C30.5542 111.475 30.2302 111.579 29.9102 111.643C29.5902 111.715 29.2102 111.751 28.7702 111.751C28.1622 111.751 27.6222 111.627 27.1502 111.379C26.6862 111.131 26.3222 110.763 26.0582 110.275C25.8022 109.779 25.6742 109.175 25.6742 108.463C25.6742 107.759 25.7902 107.155 26.0222 106.651C26.2622 106.147 26.5942 105.759 27.0182 105.487C27.4502 105.215 27.9502 105.079 28.5182 105.079ZM28.5062 105.943C28.0022 105.943 27.6022 106.107 27.3062 106.435C27.0182 106.755 26.8462 107.203 26.7902 107.779H30.0662C30.0662 107.411 30.0102 107.091 29.8982 106.819C29.7862 106.547 29.6142 106.335 29.3822 106.183C29.1582 106.023 28.8662 105.943 28.5062 105.943ZM32.4716 107.767C32.4716 106.831 32.5636 106.035 32.7476 105.379C32.9396 104.715 33.2316 104.187 33.6236 103.795C34.0236 103.395 34.5356 103.127 35.1596 102.991C35.6796 102.879 36.1876 102.779 36.6836 102.691C37.1796 102.603 37.6436 102.523 38.0756 102.451L38.2556 103.375C38.0476 103.407 37.8156 103.447 37.5596 103.495C37.3036 103.535 37.0436 103.579 36.7796 103.627C36.5156 103.667 36.2596 103.711 36.0116 103.759C35.7716 103.799 35.5596 103.839 35.3756 103.879C35.1116 103.935 34.8756 104.031 34.6676 104.167C34.4596 104.295 34.2796 104.471 34.1276 104.695C33.9836 104.919 33.8676 105.195 33.7796 105.523C33.6916 105.851 33.6396 106.239 33.6236 106.687H33.6956C33.8076 106.535 33.9596 106.379 34.1516 106.219C34.3516 106.059 34.5876 105.923 34.8596 105.811C35.1396 105.699 35.4556 105.643 35.8076 105.643C36.3676 105.643 36.8316 105.767 37.1996 106.015C37.5756 106.255 37.8556 106.591 38.0396 107.023C38.2316 107.455 38.3276 107.959 38.3276 108.535C38.3276 109.247 38.2036 109.843 37.9556 110.323C37.7076 110.803 37.3636 111.163 36.9236 111.403C36.4836 111.635 35.9716 111.751 35.3876 111.751C34.9476 111.751 34.5476 111.667 34.1876 111.499C33.8276 111.323 33.5196 111.067 33.2636 110.731C33.0076 110.395 32.8116 109.979 32.6756 109.483C32.5396 108.987 32.4716 108.415 32.4716 107.767ZM35.4716 110.875C35.8236 110.875 36.1276 110.803 36.3836 110.659C36.6476 110.515 36.8516 110.279 36.9956 109.951C37.1396 109.623 37.2116 109.187 37.2116 108.643C37.2116 107.987 37.0876 107.471 36.8396 107.095C36.5996 106.711 36.1996 106.519 35.6396 106.519C35.2876 106.519 34.9676 106.599 34.6796 106.759C34.3916 106.911 34.1516 107.087 33.9596 107.287C33.7676 107.487 33.6316 107.655 33.5516 107.791C33.5516 108.183 33.5796 108.563 33.6356 108.931C33.6916 109.299 33.7876 109.631 33.9236 109.927C34.0676 110.215 34.2636 110.447 34.5116 110.623C34.7676 110.791 35.0876 110.875 35.4716 110.875ZM42.4752 105.079C43.0272 105.079 43.4992 105.199 43.8912 105.439C44.2912 105.679 44.5952 106.019 44.8032 106.459C45.0192 106.891 45.1272 107.399 45.1272 107.983V108.619H40.7232C40.7392 109.347 40.9232 109.903 41.2752 110.287C41.6352 110.663 42.1352 110.851 42.7752 110.851C43.1832 110.851 43.5432 110.815 43.8552 110.743C44.1752 110.663 44.5032 110.551 44.8392 110.407V111.331C44.5112 111.475 44.1872 111.579 43.8672 111.643C43.5472 111.715 43.1672 111.751 42.7272 111.751C42.1192 111.751 41.5792 111.627 41.1072 111.379C40.6432 111.131 40.2792 110.763 40.0152 110.275C39.7592 109.779 39.6312 109.175 39.6312 108.463C39.6312 107.759 39.7472 107.155 39.9792 106.651C40.2192 106.147 40.5512 105.759 40.9752 105.487C41.4072 105.215 41.9072 105.079 42.4752 105.079ZM42.4632 105.943C41.9592 105.943 41.5592 106.107 41.2632 106.435C40.9752 106.755 40.8032 107.203 40.7472 107.779H44.0232C44.0232 107.411 43.9672 107.091 43.8552 106.819C43.7432 106.547 43.5712 106.335 43.3392 106.183C43.1152 106.023 42.8232 105.943 42.4632 105.943ZM51.6606 111.631H50.5926V106.075H48.6966C48.6166 107.091 48.5166 107.959 48.3966 108.679C48.2766 109.391 48.1246 109.971 47.9406 110.419C47.7566 110.867 47.5366 111.195 47.2806 111.403C47.0246 111.611 46.7246 111.715 46.3806 111.715C46.2766 111.715 46.1726 111.707 46.0686 111.691C45.9726 111.683 45.8926 111.663 45.8286 111.631V110.839C45.8766 110.855 45.9286 110.867 45.9846 110.875C46.0406 110.883 46.0966 110.887 46.1526 110.887C46.3286 110.887 46.4886 110.815 46.6326 110.671C46.7766 110.527 46.9046 110.307 47.0166 110.011C47.1366 109.715 47.2446 109.343 47.3406 108.895C47.4366 108.439 47.5206 107.903 47.5926 107.287C47.6646 106.671 47.7286 105.975 47.7846 105.199H51.6606V111.631ZM56.6661 107.839C57.2261 107.839 57.6901 107.907 58.0581 108.043C58.4261 108.179 58.7021 108.383 58.8861 108.655C59.0781 108.919 59.1741 109.255 59.1741 109.663C59.1741 110.063 59.0821 110.411 58.8981 110.707C58.7221 111.003 58.4461 111.231 58.0701 111.391C57.6941 111.551 57.2101 111.631 56.6181 111.631H53.7021V105.199H54.7581V107.839H56.6661ZM58.1181 109.723C58.1181 109.331 57.9781 109.067 57.6981 108.931C57.4261 108.787 57.0421 108.715 56.5461 108.715H54.7581V110.779H56.5701C57.0181 110.779 57.3861 110.699 57.6741 110.539C57.9701 110.379 58.1181 110.107 58.1181 109.723ZM65.9618 111.751C65.3938 111.751 64.8858 111.635 64.4378 111.403C63.9978 111.171 63.6498 110.811 63.3938 110.323C63.1458 109.835 63.0218 109.211 63.0218 108.451C63.0218 107.659 63.1538 107.015 63.4178 106.519C63.6818 106.023 64.0378 105.659 64.4858 105.427C64.9418 105.195 65.4578 105.079 66.0338 105.079C66.3618 105.079 66.6778 105.115 66.9818 105.187C67.2858 105.251 67.5338 105.331 67.7258 105.427L67.4018 106.303C67.2098 106.231 66.9858 106.163 66.7298 106.099C66.4738 106.035 66.2338 106.003 66.0098 106.003C65.5778 106.003 65.2218 106.095 64.9418 106.279C64.6618 106.463 64.4538 106.735 64.3178 107.095C64.1818 107.455 64.1138 107.903 64.1138 108.439C64.1138 108.951 64.1818 109.387 64.3178 109.747C64.4538 110.107 64.6578 110.379 64.9298 110.563C65.2018 110.747 65.5418 110.839 65.9498 110.839C66.3018 110.839 66.6098 110.803 66.8738 110.731C67.1458 110.659 67.3938 110.571 67.6178 110.467V111.403C67.4018 111.515 67.1618 111.599 66.8978 111.655C66.6418 111.719 66.3298 111.751 65.9618 111.751ZM75.5061 105.199H76.6581L73.9101 108.295L76.8861 111.631H75.6621L72.7581 108.367V111.631H71.7021V105.199H72.7581V108.319L75.5061 105.199ZM80.3033 105.079C80.8553 105.079 81.3273 105.199 81.7193 105.439C82.1193 105.679 82.4233 106.019 82.6313 106.459C82.8473 106.891 82.9553 107.399 82.9553 107.983V108.619H78.5513C78.5673 109.347 78.7513 109.903 79.1033 110.287C79.4633 110.663 79.9633 110.851 80.6033 110.851C81.0113 110.851 81.3713 110.815 81.6833 110.743C82.0033 110.663 82.3313 110.551 82.6673 110.407V111.331C82.3393 111.475 82.0153 111.579 81.6953 111.643C81.3753 111.715 80.9953 111.751 80.5553 111.751C79.9473 111.751 79.4073 111.627 78.9353 111.379C78.4713 111.131 78.1073 110.763 77.8433 110.275C77.5873 109.779 77.4593 109.175 77.4593 108.463C77.4593 107.759 77.5753 107.155 77.8073 106.651C78.0473 106.147 78.3793 105.759 78.8033 105.487C79.2353 105.215 79.7353 105.079 80.3033 105.079ZM80.2913 105.943C79.7873 105.943 79.3873 106.107 79.0913 106.435C78.8033 106.755 78.6313 107.203 78.5753 107.779H81.8513C81.8513 107.411 81.7953 107.091 81.6833 106.819C81.5713 106.547 81.3993 106.335 81.1673 106.183C80.9433 106.023 80.6513 105.943 80.2913 105.943ZM87.6528 105.079C88.4448 105.079 89.0808 105.355 89.5608 105.907C90.0488 106.459 90.2928 107.291 90.2928 108.403C90.2928 109.131 90.1808 109.747 89.9568 110.251C89.7408 110.747 89.4328 111.123 89.0328 111.379C88.6408 111.627 88.1768 111.751 87.6408 111.751C87.3128 111.751 87.0208 111.707 86.7648 111.619C86.5088 111.531 86.2888 111.419 86.1048 111.283C85.9288 111.139 85.7768 110.983 85.6488 110.815H85.5768C85.5928 110.951 85.6088 111.123 85.6248 111.331C85.6408 111.539 85.6488 111.719 85.6488 111.871V114.511H84.5928V105.199H85.4568L85.6008 106.075H85.6488C85.7768 105.891 85.9288 105.723 86.1048 105.571C86.2888 105.419 86.5048 105.299 86.7528 105.211C87.0088 105.123 87.3088 105.079 87.6528 105.079ZM87.4608 105.967C87.0288 105.967 86.6808 106.051 86.4168 106.219C86.1528 106.379 85.9608 106.623 85.8408 106.951C85.7208 107.279 85.6568 107.695 85.6488 108.199V108.403C85.6488 108.931 85.7048 109.379 85.8168 109.747C85.9288 110.115 86.1168 110.395 86.3808 110.587C86.6528 110.779 87.0208 110.875 87.4848 110.875C87.8768 110.875 88.1968 110.767 88.4448 110.551C88.7008 110.335 88.8888 110.043 89.0088 109.675C89.1368 109.299 89.2008 108.871 89.2008 108.391C89.2008 107.655 89.0568 107.067 88.7688 106.627C88.4888 106.187 88.0528 105.967 87.4608 105.967ZM94.4116 105.091C95.1956 105.091 95.7756 105.263 96.1516 105.607C96.5276 105.951 96.7156 106.499 96.7156 107.251V111.631H95.9476L95.7436 110.719H95.6956C95.5116 110.951 95.3196 111.147 95.1196 111.307C94.9276 111.459 94.7036 111.571 94.4476 111.643C94.1996 111.715 93.8956 111.751 93.5356 111.751C93.1516 111.751 92.8036 111.683 92.4916 111.547C92.1876 111.411 91.9476 111.203 91.7716 110.923C91.5956 110.635 91.5076 110.275 91.5076 109.843C91.5076 109.203 91.7596 108.711 92.2636 108.367C92.7676 108.015 93.5436 107.823 94.5916 107.791L95.6836 107.755V107.371C95.6836 106.835 95.5676 106.463 95.3356 106.255C95.1036 106.047 94.7756 105.943 94.3516 105.943C94.0156 105.943 93.6956 105.995 93.3916 106.099C93.0876 106.195 92.8036 106.307 92.5396 106.435L92.2156 105.643C92.4956 105.491 92.8276 105.363 93.2116 105.259C93.5956 105.147 93.9956 105.091 94.4116 105.091ZM94.7236 108.523C93.9236 108.555 93.3676 108.683 93.0556 108.907C92.7516 109.131 92.5996 109.447 92.5996 109.855C92.5996 110.215 92.7076 110.479 92.9236 110.647C93.1476 110.815 93.4316 110.899 93.7756 110.899C94.3196 110.899 94.7716 110.751 95.1316 110.455C95.4916 110.151 95.6716 109.687 95.6716 109.063V108.487L94.7236 108.523ZM105.602 105.199V111.631H104.654V107.527C104.654 107.359 104.658 107.183 104.666 106.999C104.682 106.815 104.698 106.635 104.714 106.459H104.678L102.578 111.631H101.69L99.6501 106.459H99.6141C99.6301 106.635 99.6381 106.815 99.6381 106.999C99.6461 107.183 99.6501 107.371 99.6501 107.563V111.631H98.7021V105.199H100.106L102.134 110.371L104.198 105.199H105.602ZM113.247 108.403C113.247 108.939 113.175 109.415 113.031 109.831C112.895 110.239 112.695 110.587 112.431 110.875C112.175 111.163 111.859 111.383 111.483 111.535C111.115 111.679 110.703 111.751 110.247 111.751C109.823 111.751 109.431 111.679 109.071 111.535C108.711 111.383 108.399 111.163 108.135 110.875C107.871 110.587 107.663 110.239 107.511 109.831C107.367 109.415 107.295 108.939 107.295 108.403C107.295 107.691 107.415 107.091 107.655 106.603C107.895 106.107 108.239 105.731 108.687 105.475C109.135 105.211 109.667 105.079 110.283 105.079C110.867 105.079 111.379 105.211 111.819 105.475C112.267 105.731 112.615 106.107 112.863 106.603C113.119 107.091 113.247 107.691 113.247 108.403ZM108.387 108.403C108.387 108.907 108.451 109.347 108.579 109.723C108.715 110.091 108.923 110.375 109.203 110.575C109.483 110.775 109.839 110.875 110.271 110.875C110.703 110.875 111.059 110.775 111.339 110.575C111.619 110.375 111.823 110.091 111.951 109.723C112.087 109.347 112.155 108.907 112.155 108.403C112.155 107.891 112.087 107.455 111.951 107.095C111.815 106.735 111.607 106.459 111.327 106.267C111.055 106.067 110.699 105.967 110.259 105.967C109.603 105.967 109.127 106.183 108.831 106.615C108.535 107.047 108.387 107.643 108.387 108.403ZM118.845 105.199V106.087H115.977V111.631H114.921V105.199H118.845ZM123.172 105.079C123.964 105.079 124.6 105.355 125.08 105.907C125.568 106.459 125.812 107.291 125.812 108.403C125.812 109.131 125.7 109.747 125.476 110.251C125.26 110.747 124.952 111.123 124.552 111.379C124.16 111.627 123.696 111.751 123.16 111.751C122.832 111.751 122.54 111.707 122.284 111.619C122.028 111.531 121.808 111.419 121.624 111.283C121.448 111.139 121.296 110.983 121.168 110.815H121.096C121.112 110.951 121.128 111.123 121.144 111.331C121.16 111.539 121.168 111.719 121.168 111.871V114.511H120.112V105.199H120.976L121.12 106.075H121.168C121.296 105.891 121.448 105.723 121.624 105.571C121.808 105.419 122.024 105.299 122.272 105.211C122.528 105.123 122.828 105.079 123.172 105.079ZM122.98 105.967C122.548 105.967 122.2 106.051 121.936 106.219C121.672 106.379 121.48 106.623 121.36 106.951C121.24 107.279 121.176 107.695 121.168 108.199V108.403C121.168 108.931 121.224 109.379 121.336 109.747C121.448 110.115 121.636 110.395 121.9 110.587C122.172 110.779 122.54 110.875 123.004 110.875C123.396 110.875 123.716 110.767 123.964 110.551C124.22 110.335 124.408 110.043 124.528 109.675C124.656 109.299 124.72 108.871 124.72 108.391C124.72 107.655 124.576 107.067 124.288 106.627C124.008 106.187 123.572 105.967 122.98 105.967ZM129.931 105.091C130.715 105.091 131.295 105.263 131.671 105.607C132.047 105.951 132.235 106.499 132.235 107.251V111.631H131.467L131.263 110.719H131.215C131.031 110.951 130.839 111.147 130.639 111.307C130.447 111.459 130.223 111.571 129.967 111.643C129.719 111.715 129.415 111.751 129.055 111.751C128.671 111.751 128.323 111.683 128.011 111.547C127.707 111.411 127.467 111.203 127.291 110.923C127.115 110.635 127.027 110.275 127.027 109.843C127.027 109.203 127.279 108.711 127.783 108.367C128.287 108.015 129.063 107.823 130.111 107.791L131.203 107.755V107.371C131.203 106.835 131.087 106.463 130.855 106.255C130.623 106.047 130.295 105.943 129.871 105.943C129.535 105.943 129.215 105.995 128.911 106.099C128.607 106.195 128.323 106.307 128.059 106.435L127.735 105.643C128.015 105.491 128.347 105.363 128.731 105.259C129.115 105.147 129.515 105.091 129.931 105.091ZM130.243 108.523C129.443 108.555 128.887 108.683 128.575 108.907C128.271 109.131 128.119 109.447 128.119 109.855C128.119 110.215 128.227 110.479 128.443 110.647C128.667 110.815 128.951 110.899 129.295 110.899C129.839 110.899 130.291 110.751 130.651 110.455C131.011 110.151 131.191 109.687 131.191 109.063V108.487L130.243 108.523ZM135.278 105.199V107.875H138.77V105.199H139.826V111.631H138.77V108.763H135.278V111.631H134.222V105.199H135.278ZM142.858 109.123C142.858 109.195 142.854 109.299 142.846 109.435C142.846 109.563 142.842 109.703 142.834 109.855C142.826 109.999 142.818 110.139 142.81 110.275C142.802 110.403 142.794 110.507 142.786 110.587L146.23 105.199H147.526V111.631H146.542V107.839C146.542 107.711 146.542 107.543 146.542 107.335C146.55 107.127 146.558 106.923 146.566 106.723C146.574 106.515 146.582 106.359 146.59 106.255L143.17 111.631H141.862V105.199H142.858V109.123ZM154.013 106.087H151.913V111.631H150.869V106.087H148.793V105.199H154.013V106.087ZM160.755 108.403C160.755 108.939 160.683 109.415 160.539 109.831C160.403 110.239 160.203 110.587 159.939 110.875C159.683 111.163 159.367 111.383 158.991 111.535C158.623 111.679 158.211 111.751 157.755 111.751C157.331 111.751 156.939 111.679 156.579 111.535C156.219 111.383 155.907 111.163 155.643 110.875C155.379 110.587 155.171 110.239 155.019 109.831C154.875 109.415 154.803 108.939 154.803 108.403C154.803 107.691 154.923 107.091 155.163 106.603C155.403 106.107 155.747 105.731 156.195 105.475C156.643 105.211 157.175 105.079 157.791 105.079C158.375 105.079 158.887 105.211 159.327 105.475C159.775 105.731 160.123 106.107 160.371 106.603C160.627 107.091 160.755 107.691 160.755 108.403ZM155.895 108.403C155.895 108.907 155.959 109.347 156.087 109.723C156.223 110.091 156.431 110.375 156.711 110.575C156.991 110.775 157.347 110.875 157.779 110.875C158.211 110.875 158.567 110.775 158.847 110.575C159.127 110.375 159.331 110.091 159.459 109.723C159.595 109.347 159.663 108.907 159.663 108.403C159.663 107.891 159.595 107.455 159.459 107.095C159.323 106.735 159.115 106.459 158.835 106.267C158.563 106.067 158.207 105.967 157.767 105.967C157.111 105.967 156.635 106.183 156.339 106.615C156.043 107.047 155.895 107.643 155.895 108.403ZM169.329 105.199V111.631H168.381V107.527C168.381 107.359 168.385 107.183 168.393 106.999C168.409 106.815 168.425 106.635 168.441 106.459H168.405L166.305 111.631H165.417L163.377 106.459H163.341C163.357 106.635 163.365 106.815 163.365 106.999C163.373 107.183 163.377 107.371 163.377 107.563V111.631H162.429V105.199H163.833L165.861 110.371L167.925 105.199H169.329Z" fill="#4C4E59"/>
<g clip-path="url(#clip1_276_49)">
<g clip-path="url(#clip2_276_49)">
<g clip-path="url(#clip3_276_49)">
<g clip-path="url(#clip4_276_49)">
<path d="M185.136 65.6431H0.0788745C0.0763032 65.6431 0.0742188 65.6452 0.0742188 65.6477V67.7019C0.0742188 67.7045 0.0763032 67.7066 0.0788745 67.7066H185.136C185.139 67.7066 185.141 67.7045 185.141 67.7019V65.6477C185.141 65.6452 185.139 65.6431 185.136 65.6431Z" fill="#4C4E59"/>
<g clip-path="url(#clip5_276_49)">
<g clip-path="url(#clip6_276_49)">
<g clip-path="url(#clip7_276_49)">
<g clip-path="url(#clip8_276_49)">
<path d="M7.50102 93.6298C8.16808 93.6298 8.78542 93.5426 9.35304 93.3682C9.92067 93.1897 10.4054 92.9364 10.8073 92.6084C11.2134 92.2763 11.5303 91.8818 11.7582 91.4251C11.9861 90.9726 12.1 90.466 12.1 89.9055C12.1 89.2495 11.9446 88.6932 11.6339 88.2365C11.3273 87.7798 10.9233 87.3791 10.422 87.0345C9.92067 86.6899 9.34683 86.3827 8.70049 86.1128C8.05414 85.8429 7.39537 85.5689 6.72417 85.2907C6.05711 85.0126 5.4004 84.7115 4.75406 84.3877C4.10772 84.0639 3.53388 83.6694 3.03255 83.2044C2.53122 82.7353 2.12725 82.1851 1.82065 81.554C1.50991 80.9188 1.35454 80.1507 1.35454 79.2498C1.35454 78.2948 1.53684 77.4375 1.90145 76.6777C2.26605 75.9179 2.7736 75.2723 3.42408 74.7408C4.07871 74.2094 4.8535 73.8046 5.74844 73.5264C6.64337 73.2482 7.62739 73.1091 8.70049 73.1091C9.35512 73.1091 10.1796 73.1714 11.174 73.296C12.1642 73.4247 13.2166 73.6551 14.3311 73.9873L13.8277 76.6341L13.5232 76.7835C12.968 76.5303 12.4273 76.3185 11.9011 76.1483C11.3749 75.9739 10.8798 75.8369 10.4158 75.7373C9.9476 75.6335 9.5167 75.5629 9.1231 75.5255C8.72949 75.484 8.3856 75.4632 8.09143 75.4632C7.49481 75.4632 6.95619 75.5359 6.47557 75.6812C5.99496 75.8307 5.58478 76.0445 5.24503 76.3227C4.90943 76.6009 4.64634 76.9392 4.45575 77.3378C4.2693 77.7405 4.17608 78.1952 4.17608 78.7017C4.17608 79.3826 4.33145 79.9597 4.64219 80.433C4.94879 80.9105 5.3569 81.3319 5.86652 81.6973C6.38028 82.0627 6.96033 82.3865 7.60667 82.6688C8.25302 82.9553 8.91386 83.2397 9.58921 83.522C10.2604 83.8044 10.9192 84.1074 11.5655 84.4313C12.2119 84.7551 12.7919 85.133 13.3057 85.5648C13.8153 85.9966 14.2255 86.5072 14.5362 87.0968C14.8428 87.6822 14.9961 88.386 14.9961 89.208C14.9961 90.109 14.8014 90.9684 14.4119 91.7863C14.0225 92.6001 13.4756 93.3184 12.7712 93.9412C12.071 94.5681 11.2279 95.0663 10.2418 95.4358C9.25568 95.8054 8.16394 95.9901 6.96654 95.9901C6.46107 95.9901 5.93281 95.9548 5.38176 95.8842C4.83071 95.8137 4.27759 95.714 3.7224 95.5853C3.1672 95.4608 2.61822 95.3071 2.07546 95.1245C1.53684 94.9418 1.02308 94.7383 0.53418 94.5141L1.05001 91.8548L1.35454 91.6992C2.3862 92.297 3.4303 92.7683 4.48682 93.1129C5.54335 93.4575 6.54808 93.6298 7.50102 93.6298ZM23.5229 95.685H20.546V73.4081H23.5229V82.8806H35.4803V73.4081H38.451V95.685H35.4803V85.2409H23.5229V95.685ZM48.0405 73.4081V95.685H45.0635V73.4081H48.0405ZM57.63 73.4081V95.685H54.6531V73.4081H57.63ZM72.4524 95.685H68.6551L59.0407 84.4313L68.2014 73.4081H71.5388L61.9804 84.0514L72.4524 95.685ZM79.7921 73.4081V95.685H76.8214V73.4081H79.7921ZM94.6145 95.685H90.8234L81.2029 84.4313L90.3698 73.4081H93.7071L84.1487 84.0514L94.6145 95.685ZM111.805 95.685H98.9835V73.4081H112.022L111.562 75.7684H101.96V82.8806H110.518L110.065 85.2409H101.96V93.3308H112.265L111.805 95.685ZM124.614 86.8041H120.53V95.685H117.553V73.4081H123.837C124.931 73.4081 125.933 73.5617 126.845 73.8689C127.752 74.172 128.531 74.5893 129.181 75.1207C129.828 75.6522 130.329 76.2791 130.685 77.0015C131.046 77.7198 131.226 78.4941 131.226 79.3245C131.226 80.0552 131.096 80.7361 130.835 81.3672C130.569 82.0024 130.226 82.5858 129.803 83.1172C129.376 83.6487 128.891 84.1282 128.349 84.5559C127.81 84.9793 127.267 85.3489 126.72 85.6644L133.258 95.685H129.697L124.614 86.8041ZM120.53 75.7684V84.45H125.459C125.886 84.2175 126.269 83.9331 126.609 83.5968C126.944 83.2646 127.23 82.8972 127.466 82.4944C127.698 82.0959 127.876 81.6724 128.001 81.224C128.129 80.7797 128.193 80.323 128.193 79.8539C128.193 79.2767 128.092 78.737 127.889 78.2346C127.686 77.7364 127.379 77.3046 126.969 76.9392C126.559 76.5739 126.045 76.2874 125.428 76.0798C124.815 75.8722 124.092 75.7684 123.259 75.7684H120.53ZM152.437 95.685L150.331 89.6315H140.741L138.659 95.685H135.85L144.122 73.4081H147.279L155.563 95.685H152.437ZM141.543 87.3085H149.492L146.552 78.6083L145.688 75.5068H145.384L144.52 78.6083L141.543 87.3085ZM162.039 95.685H159.386L161.07 73.4081H165.532L171.02 88.9651L171.871 91.8673H172.176L173.009 88.9651L178.515 73.4081H182.996L184.68 95.685H181.747L180.566 78.1973L180.448 75.0086H180.156L179.279 78.0478L173.27 95.2303H170.585L164.513 78.0789L163.606 75.0086H163.313L163.226 78.1661L162.039 95.685Z" fill="#4C4E59"/>
</g>
</g>
</g>
</g>
<g clip-path="url(#clip9_276_49)">
<g clip-path="url(#clip10_276_49)">
<path d="M138.578 19.8832C140.166 18.7712 141.041 17.5368 141.041 16.1902V11.0893C141.041 3.88686 115.987 0 92.4093 0C68.8312 0 43.777 3.89706 43.777 11.0995V16.2004C43.777 17.6286 44.7951 18.9242 46.5258 20.077L45.7928 21.2196C44.4447 23.3135 43.5853 25.6852 43.2786 28.158C42.9719 30.6308 43.2258 33.1412 44.0214 35.502L46.2509 42.225C46.9053 44.177 47.1378 46.2461 46.933 48.295L45.7826 60.2106H50.2213L52.1149 48.5195C52.4975 46.1846 52.376 43.7947 51.7585 41.5109L50.3231 35.9917C49.7127 33.7432 49.6502 31.3806 50.141 29.1029C50.6317 26.8251 51.6613 24.6988 53.1431 22.9029C61.766 25.5247 75.2449 26.9836 88.7036 27.2386L89.7216 49.7437H93.6716L94.6897 27.2998C108.759 27.1264 123.114 25.5962 132.042 22.8417C133.554 24.6414 134.608 26.7818 135.113 29.0792C135.618 31.3766 135.56 33.7626 134.943 36.0325L133.457 41.5415C132.835 43.8244 132.71 46.2145 133.091 48.5501L134.984 60.2413H139.423L138.272 48.2542C138.073 46.2188 138.306 44.1641 138.954 42.225L141.194 35.5326C141.99 33.1718 142.244 30.6615 141.937 28.1886C141.63 25.7158 140.771 23.3441 139.423 21.2502L138.578 19.8832ZM92.4093 2.05055C121.281 2.05055 139.005 7.32485 139.005 11.0995C138.944 11.453 138.813 11.7905 138.618 12.092C138.424 12.3935 138.172 12.6527 137.875 12.8542C132.663 17.0879 113.554 20.1586 92.4296 20.1586C71.3051 20.1586 52.1963 17.0981 46.9839 12.8644C46.6832 12.6633 46.4262 12.4032 46.2285 12.0999C46.0308 11.7966 45.8964 11.4563 45.8335 11.0995C45.8131 7.32485 63.5577 2.05055 92.4093 2.05055ZM45.8131 14.5477L46.0371 14.7109L46.3323 14.9251L46.6479 15.1292L46.9839 15.3332L47.3402 15.5372L47.7169 15.7413L48.1037 15.9351L48.511 16.1391L48.9284 16.3228L49.3763 16.5166L49.8242 16.7002L50.3129 16.8941L50.8016 17.0675L51.3208 17.2511L51.8298 17.4246L52.3897 17.6082L52.9395 17.7714L53.5198 17.9449L54.1001 18.1081L54.7211 18.2815L55.3217 18.4345L55.9733 18.5978L56.6045 18.7508L57.2865 18.914L57.9279 19.0568L58.6507 19.2099L59.3125 19.3425L60.0658 19.4955L60.7683 19.6281L61.5216 19.7812L62.2546 19.9036L63.0487 20.0362L63.7817 20.1484L64.6165 20.2811L65.38 20.3933L66.225 20.5157L67.0293 20.6279L67.8743 20.7401L68.648 20.8013L69.554 20.9136L70.3583 21.0054L71.2847 21.1074L72.1704 21.1992L73.0561 21.291L73.952 21.3726L74.8683 21.4543L75.7845 21.5257L76.7008 21.5971L77.7188 21.6685L78.6045 21.7297L79.6226 21.7909H80.4777L81.4958 21.8419H82.3611H83.3792H84.3361H85.3542H86.3111H87.4514H88.3065H89.5282H95.2293H96.4204H97.1941H98.4259H99.1996H100.401H101.266H102.356H103.201L104.28 21.8725H105.104L106.183 21.8113L107.028 21.7501L108.046 21.6787L108.891 21.6073L109.91 21.5257L110.704 21.4543L111.722 21.3624L112.526 21.2808L113.544 21.1788L114.328 21.0972L115.275 20.9952L116.038 20.9034L116.975 20.7911L117.738 20.6891L118.624 20.5667L119.398 20.4545L120.243 20.3321L120.986 20.2096L121.811 20.077L122.533 19.9546L123.327 19.822L124.03 19.6894L124.804 19.5465L125.465 19.4139L126.219 19.2609L126.88 19.1181L127.583 18.965L128.224 18.812L128.896 18.6488L129.507 18.4958L130.148 18.3325L130.739 18.1693L131.339 17.9959L131.869 17.7408L132.439 17.5674L132.979 17.394L133.508 17.2205L134.017 17.0369L134.516 16.8533L134.994 16.6594L135.452 16.4758L135.9 16.282L136.318 16.0983L136.735 15.8943L137.122 15.7005L137.499 15.4862L137.845 15.2924L138.191 15.0782L138.496 14.8843L138.802 14.6599L139.016 14.5069V16.1493C139.016 19.924 121.291 25.1983 92.4194 25.1983C63.5476 25.1983 45.8131 19.9648 45.8131 16.1902V14.5477ZM48.287 36.5222L49.7733 42.0312C50.3121 44.0257 50.4197 46.1126 50.0889 48.1522L48.4906 58.1703H48.0325L48.9793 48.4582C49.2107 46.123 48.9434 43.7652 48.1954 41.5415L45.9557 34.8491C45.2573 32.7787 45.0337 30.5771 45.3016 28.4082C45.5695 26.2392 46.322 24.1587 47.5031 22.3214L48.287 21.0768C49.1787 21.5066 50.0929 21.888 51.0255 22.2194C49.5127 24.2372 48.4796 26.5746 48.005 29.0533C47.5304 31.532 47.6268 34.0866 48.287 36.5222ZM91.6457 47.7441H91.5948L90.6684 27.3407H92.5721L91.6457 47.7441ZM139.27 34.8491L137.03 41.5415C136.282 43.7651 136.015 46.123 136.246 48.4582L137.193 58.1703H136.725L135.106 48.1828C134.775 46.1432 134.882 44.0562 135.422 42.0618L136.908 36.5528C137.577 34.093 137.67 31.5117 137.181 29.0099C136.692 26.508 135.633 24.1528 134.088 22.1276C135.034 21.7804 135.958 21.3785 136.857 20.9238L137.753 22.3214C138.929 24.1611 139.676 26.2428 139.939 28.4117C140.202 30.5806 139.973 32.781 139.27 34.8491Z" fill="#4C4E59"/>
<path d="M54.5174 13.4458C59.1495 16.0983 74.3796 17.8734 92.4092 17.8734C110.439 17.8734 125.659 16.0881 130.301 13.4356C131.462 12.7725 132.052 11.9768 132.052 11.0994C132.052 4.41731 94.0279 4.33569 92.4092 4.33569C90.7905 4.33569 52.7664 4.41731 52.7664 11.0994C52.7664 11.987 53.3772 12.7725 54.5174 13.4458ZM92.4092 6.38624C116.16 6.38624 129.222 9.38555 130.006 11.0994C129.814 11.3415 129.571 11.5368 129.293 11.6707C125.068 14.0783 109.563 15.833 92.4092 15.833C75.2551 15.833 59.7502 14.0886 55.5253 11.6809C55.2597 11.5364 55.0162 11.3543 54.8025 11.1402C55.4133 9.41616 68.5258 6.38624 92.4092 6.38624Z" fill="#4C4E59"/>
</g>
</g>
</g>
</g>
</g>
</g>
</g>
<defs>
<clipPath id="clip0_276_49">
<rect width="185.289" height="116.604" fill="white"/>
</clipPath>
<clipPath id="clip1_276_49">
<rect width="185.289" height="116.604" fill="white" transform="translate(-0.0371094 0.046875)"/>
</clipPath>
<clipPath id="clip2_276_49">
<rect width="185.067" height="116.698" fill="white" transform="translate(0.0742188)"/>
</clipPath>
<clipPath id="clip3_276_49">
<rect width="185.067" height="116.698" fill="white" transform="translate(0.0742188)"/>
</clipPath>
<clipPath id="clip4_276_49">
<rect width="185.067" height="116.698" fill="white" transform="translate(0.0742188)"/>
</clipPath>
<clipPath id="clip5_276_49">
<rect width="184.146" height="43.5899" fill="white" transform="translate(0.53418 73.1084)"/>
</clipPath>
<clipPath id="clip6_276_49">
<rect width="184.146" height="43.5899" fill="white" transform="translate(0.53418 73.1084)"/>
</clipPath>
<clipPath id="clip7_276_49">
<rect width="184.146" height="22.8819" fill="white" transform="translate(0.53418 73.1084)"/>
</clipPath>
<clipPath id="clip8_276_49">
<rect width="184.146" height="22.8819" fill="white" transform="translate(0.53418 73.1084)"/>
</clipPath>
<clipPath id="clip9_276_49">
<rect width="98.9109" height="60.2413" fill="white" transform="translate(43.1523)"/>
</clipPath>
<clipPath id="clip10_276_49">
<rect width="98.9109" height="60.2413" fill="white" transform="translate(43.1523)"/>
</clipPath>
</defs>
</svg>
