<svg width="60" height="60" viewBox="0 0 60 60" fill="none" xmlns="http://www.w3.org/2000/svg">
<path d="M28.746 37.05C28.6973 37.0162 23.0573 27.5344 23.0385 27.4125C21.8723 24.8644 20.931 22.2581 22.8923 21.1012L14.7529 7.37624C12.6435 8.95311 6.67729 17.5106 17.8448 36.9037C29.6085 57.3412 40.8042 56.4919 43.0485 55.1081L35.1173 41.7112C33.2423 42.8137 31.6635 40.9969 28.746 37.05ZM48.4917 49.9069L48.4935 49.8956C48.4935 49.8956 42.3004 39.4594 42.2967 39.4556C41.8054 38.6287 40.7498 38.3681 39.9267 38.8481L36.1317 41.0925L44.0854 54.5287C44.0854 54.5287 47.8804 52.2956 47.8785 52.2881H47.886C48.7579 51.7706 48.9585 50.7019 48.4917 49.9069ZM27.7242 18.255V18.2475C28.596 17.7319 28.8004 16.6631 28.3335 15.8756L28.3373 15.8644C28.3373 15.8644 21.966 5.12249 21.9623 5.12061C21.4729 4.28999 20.4135 4.03311 19.5942 4.51311L15.7992 6.75749L23.9292 20.49C23.9292 20.49 27.7223 18.2606 27.7242 18.255Z" fill="#D9AB91"/>
</svg>
