<svg width="21" height="22" viewBox="0 0 21 22" fill="none" xmlns="http://www.w3.org/2000/svg">
<g clip-path="url(#clip0_280_13)">
<path d="M10.4715 21.6301C16.2548 21.6301 20.9431 16.9418 20.9431 11.1586C20.9431 5.37528 16.2548 0.687012 10.4715 0.687012C4.68827 0.687012 0 5.37528 0 11.1586C0 16.9418 4.68827 21.6301 10.4715 21.6301Z" fill="url(#paint0_linear_280_13)"/>
<path d="M7.08789 11.924L8.33025 15.3627C8.33025 15.3627 8.48558 15.6844 8.6519 15.6844C8.81823 15.6844 11.292 13.1109 11.292 13.1109L14.043 7.79742L7.13222 11.0364L7.08789 11.924Z" fill="#C8DAEA"/>
<path d="M8.73583 12.8059L8.49734 15.3405C8.49734 15.3405 8.39751 16.1172 9.17398 15.3405C9.95044 14.5639 10.6937 13.965 10.6937 13.965" fill="#A9C6D8"/>
<path d="M7.11029 12.0467L4.55471 11.2141C4.55471 11.2141 4.24929 11.0902 4.34764 10.8092C4.36788 10.7512 4.40872 10.7019 4.53089 10.6172C5.09714 10.2225 15.0117 6.65896 15.0117 6.65896C15.0117 6.65896 15.2916 6.56463 15.4567 6.62737C15.4976 6.64001 15.5343 6.66328 15.5632 6.69479C15.5921 6.72629 15.6121 6.76491 15.6212 6.80669C15.6391 6.88049 15.6465 6.95641 15.6434 7.03227C15.6426 7.09789 15.6347 7.15871 15.6286 7.25409C15.5682 8.22838 13.7612 15.4998 13.7612 15.4998C13.7612 15.4998 13.6531 15.9253 13.2657 15.9399C13.1705 15.943 13.0757 15.9268 12.9869 15.8925C12.898 15.8581 12.817 15.8062 12.7487 15.7399C11.9885 15.086 9.36124 13.3203 8.78068 12.932C8.76758 12.9231 8.75655 12.9115 8.74833 12.8979C8.74012 12.8844 8.7349 12.8692 8.73303 12.8535C8.72492 12.8126 8.76942 12.7619 8.76942 12.7619C8.76942 12.7619 13.3443 8.69541 13.466 8.26852C13.4754 8.23545 13.4398 8.21913 13.392 8.23362C13.0881 8.3454 7.82079 11.6718 7.23944 12.0389C7.19759 12.0515 7.15336 12.0542 7.11029 12.0467Z" fill="white"/>
</g>
<defs>
<linearGradient id="paint0_linear_280_13" x1="10.4715" y1="21.6301" x2="10.4715" y2="0.687012" gradientUnits="userSpaceOnUse">
<stop stop-color="#1D93D2"/>
<stop offset="1" stop-color="#38B0E3"/>
</linearGradient>
<clipPath id="clip0_280_13">
<rect width="20.9431" height="20.9431" fill="white" transform="translate(0 0.687012)"/>
</clipPath>
</defs>
</svg>
