<svg width="54" height="54" viewBox="0 0 54 54" fill="none" xmlns="http://www.w3.org/2000/svg">
<g clip-path="url(#clip0_377_2)">
<path d="M26.9698 53.05C41.3736 53.05 53.0501 41.3735 53.0501 26.9697C53.0501 12.566 41.3736 0.889404 26.9698 0.889404C12.5661 0.889404 0.889526 12.566 0.889526 26.9697C0.889526 41.3735 12.5661 53.05 26.9698 53.05Z" fill="#F2F2F2"/>
<path d="M26.968 35.5903C33.4553 35.5903 38.7142 30.3314 38.7142 23.8441C38.7142 17.3569 33.4553 12.0979 26.968 12.0979C20.4808 12.0979 15.2218 17.3569 15.2218 23.8441C15.2218 30.3314 20.4808 35.5903 26.968 35.5903Z" fill="#D9AB91" fill-opacity="0.3"/>
<path d="M6.97449 43.7145C11.7584 38.0076 18.9406 34.3789 26.9698 34.3789C34.999 34.3789 42.1811 38.0076 46.9651 43.7145C42.1811 49.4213 34.9996 53.05 26.9698 53.05C18.9406 53.05 11.7584 49.4213 6.97449 43.7145Z" fill="#D9AB91" fill-opacity="0.3"/>
<path d="M26.9698 53.6427C12.2623 53.6427 0.296753 41.6772 0.296753 26.9697C0.296753 12.2622 12.2623 0.296631 26.9698 0.296631C41.6773 0.296631 53.6428 12.2622 53.6428 26.9697C53.6428 41.6772 41.6773 53.6427 26.9698 53.6427ZM26.9698 1.4821C12.9161 1.4821 1.48222 12.9159 1.48222 26.9697C1.48222 41.0234 12.9161 52.4573 26.9698 52.4573C41.0235 52.4573 52.4574 41.0234 52.4574 26.9697C52.4574 12.9159 41.0235 1.4821 26.9698 1.4821Z" fill="#4C4E59"/>
<path d="M46.9651 43.7145C43.0673 39.0651 37.578 35.7968 31.3359 34.7447C35.6593 33.0109 38.716 28.7889 38.716 23.8461C38.716 17.3586 33.4567 12.0999 26.9698 12.0999C20.4829 12.0999 15.2236 17.3586 15.2236 23.8461C15.2236 28.7889 18.2803 33.0109 22.6037 34.7447C16.3616 35.7968 10.8717 39.0657 6.97449 43.7145C11.7584 49.4214 18.9406 53.0501 26.9698 53.0501C34.9996 53.0501 42.1811 49.4214 46.9651 43.7145Z" fill="#D9AB91" fill-opacity="0.3"/>
<path d="M26.9697 53.6426C19.0603 53.6426 11.6067 50.1627 6.52041 44.0955L6.20093 43.7143L6.52041 43.3332C10.2185 38.9227 15.2289 35.8328 20.7733 34.5116C16.9923 32.3261 14.6308 28.3074 14.6308 23.8453C14.6308 17.0413 20.1663 11.5063 26.9697 11.5063C33.7732 11.5063 39.3087 17.0419 39.3087 23.8453C39.3087 28.3074 36.9478 32.3267 33.1668 34.5116C38.7112 35.8328 43.7222 38.9221 47.4197 43.3332L47.7386 43.7143L47.4197 44.0955C42.3328 50.1627 34.8792 53.6426 26.9697 53.6426ZM7.75389 43.7143C12.6042 49.2772 19.5789 52.4572 26.9697 52.4572C34.3611 52.4572 41.3353 49.2772 46.1856 43.7143C42.3139 39.2754 37.0249 36.304 31.2374 35.3295L29.1593 34.9792L31.1153 34.195C35.3729 32.4868 38.1232 28.4254 38.1232 23.8459C38.1232 17.6957 33.12 12.6924 26.9697 12.6924C20.8195 12.6924 15.8163 17.6957 15.8163 23.8459C15.8163 28.4254 18.5671 32.4868 22.8242 34.195L24.7802 34.9792L22.7021 35.3295C16.9152 36.304 11.6262 39.2748 7.75389 43.7143Z" fill="#4C4E59"/>
</g>
<defs>
<clipPath id="clip0_377_2">
<rect width="54" height="54" fill="white"/>
</clipPath>
</defs>
</svg>
