<svg width="23" height="24" viewBox="0 0 23 24" fill="none" xmlns="http://www.w3.org/2000/svg">
<path d="M11.219 2.95941C9.98535 2.95941 6.23102 2.95941 4.15541 4.85457C2.91939 6.08592 2.33691 7.86514 2.33691 10.4391V11.8415C2.33691 14.4155 2.91939 16.1947 4.1699 17.4401C4.79258 18.008 5.64153 18.462 6.67933 18.7757L7.01171 18.8757V21.3664C7.01171 21.6586 7.09632 21.6586 7.12437 21.6586C7.18187 21.6586 7.27397 21.6404 7.4488 21.4852C7.49088 21.4436 7.79941 21.1098 9.30002 19.4287L9.45149 19.259L9.67821 19.2735C10.1808 19.3048 10.6992 19.3212 11.219 19.3212C12.4527 19.3212 16.207 19.3212 18.2826 17.4256C19.5182 16.1942 20.1011 14.415 20.1011 11.8415V10.4391C20.1011 7.86514 19.5187 6.08592 18.2682 4.84055C16.207 2.95941 12.4527 2.95941 11.219 2.95941Z" fill="url(#paint0_linear_280_23)"/>
<path d="M15.6378 14.1107C15.1185 13.6731 14.8787 13.5408 14.1615 13.1103C13.8628 12.9312 13.4075 12.7765 13.1686 12.7765C13.0055 12.7765 12.8101 12.9013 12.6904 13.021C12.3837 13.3277 12.2832 13.7115 11.7456 13.7115C11.2197 13.7115 10.3011 13.1762 9.64196 12.4843C8.95009 11.8252 8.41482 10.9066 8.41482 10.3807C8.41482 9.84306 8.79161 9.73554 9.09828 9.42841C9.21795 9.3092 9.34978 9.11379 9.34978 8.95064C9.34978 8.71176 9.19504 8.26345 9.016 7.96473C8.58545 7.24715 8.45362 7.00733 8.01559 6.48843C7.8674 6.31265 7.69864 6.23225 7.52194 6.23178C7.22322 6.23131 6.831 6.3795 6.56547 6.57725C6.16624 6.87503 5.74879 7.28034 5.63706 7.78522C5.6221 7.85394 5.61322 7.92312 5.61041 7.99231C5.58891 8.51822 5.79553 9.05209 6.01852 9.50414C6.5435 10.5695 7.23818 11.6008 7.99409 12.5217C8.23578 12.8162 8.49897 13.0902 8.77151 13.3548C9.0361 13.6268 9.31005 13.89 9.60456 14.1322C10.5255 14.8881 11.5568 15.5828 12.6221 16.1078C13.07 16.3284 13.5973 16.5313 14.1181 16.5163C14.1924 16.514 14.2667 16.5056 14.3411 16.4892C14.8459 16.378 15.2512 15.96 15.549 15.5608C15.7468 15.2953 15.895 14.9035 15.8945 14.6043C15.894 14.4276 15.8136 14.2589 15.6378 14.1107ZM15.8945 11.8415C15.6364 11.8415 15.427 11.6321 15.427 11.3741V10.9066C15.427 8.58694 13.5393 6.69926 11.2197 6.69926C10.9617 6.69926 10.7522 6.48983 10.7522 6.23178C10.7522 5.97373 10.9617 5.7643 11.2197 5.7643C14.055 5.7643 16.362 8.07131 16.362 10.9066V11.3741C16.362 11.6321 16.1525 11.8415 15.8945 11.8415ZM13.0232 10.9066C12.8157 10.9066 12.6259 10.7673 12.5712 10.5569C12.4431 10.0656 12.0598 9.68178 11.5703 9.55556C11.3202 9.49058 11.1701 9.23581 11.2347 8.9857C11.2992 8.73607 11.5535 8.58601 11.8045 8.65005C12.6217 8.86182 13.2621 9.5018 13.4758 10.3208C13.5407 10.5709 13.3911 10.8257 13.1415 10.8912C13.1018 10.9014 13.062 10.9066 13.0232 10.9066ZM14.4921 11.3741C14.234 11.3741 14.0246 11.1646 14.0246 10.9066C14.0246 9.41625 12.8587 8.18678 11.3702 8.10824C11.1122 8.09469 10.9144 7.87451 10.928 7.61692C10.9415 7.35887 11.1655 7.16066 11.4193 7.17469C13.4047 7.2794 14.9595 8.91885 14.9595 10.9066C14.9595 11.1646 14.7501 11.3741 14.4921 11.3741ZM11.2197 2.49194C9.11604 2.49194 5.83807 2.68548 3.841 4.50959C2.42921 5.9153 1.87011 7.88713 1.87011 10.4391C1.87011 10.6504 1.86917 10.886 1.87104 11.1403C1.86917 11.3942 1.87011 11.6298 1.87011 11.8411C1.87011 14.393 2.42921 16.3649 3.841 17.7706C4.60112 18.4648 5.54917 18.9215 6.5449 19.2226V21.3664C6.5449 22.1125 7.03529 22.1261 7.12505 22.1261H7.12925C7.36019 22.1252 7.5598 22.012 7.75988 21.8344C7.83515 21.7675 8.70419 20.7989 9.64944 19.7396C10.2123 19.7756 10.7471 19.7887 11.2192 19.7887C13.3229 19.7887 16.6004 19.5947 18.5979 17.7706C20.0093 16.3653 20.5688 14.393 20.5688 11.8411C20.5688 11.6298 20.5698 11.3942 20.5679 11.1399C20.5698 10.8855 20.5688 10.6504 20.5688 10.4386C20.5688 7.88666 20.0097 5.91483 18.5979 4.50912C16.6009 2.68548 13.3234 2.49194 11.2197 2.49194ZM19.1669 11.6784V11.8411C19.1669 14.1345 18.6783 15.6973 17.6307 16.7552C15.816 18.3863 12.3589 18.3863 11.2192 18.3863C10.8724 18.3863 10.3095 18.3858 9.64523 18.3395C9.46057 18.5471 7.47986 20.7625 7.47986 20.7625V18.0216C6.49628 17.7855 5.5244 17.3985 4.80868 16.7557C3.76106 15.6973 3.27255 14.1345 3.27255 11.8411V11.6784C3.27255 11.5143 3.27208 11.3371 3.27348 11.13C3.27208 10.943 3.27208 10.7663 3.27255 10.6018V10.4391C3.27255 8.14564 3.76106 6.58286 4.80868 5.52495C6.62297 3.89391 10.0805 3.89392 11.2197 3.89392C12.3589 3.89392 15.816 3.89391 17.6302 5.52495C18.6783 6.58286 19.1664 8.14564 19.1664 10.4391V10.6018C19.1664 10.7659 19.1669 10.943 19.1655 11.1501C19.1669 11.3376 19.1669 11.5143 19.1669 11.6784Z" fill="url(#paint1_linear_280_23)"/>
<defs>
<linearGradient id="paint0_linear_280_23" x1="6.59612" y1="-2.16931" x2="15.9653" y2="24.8052" gradientUnits="userSpaceOnUse">
<stop stop-color="#FCFCFC"/>
<stop offset="0.495" stop-color="#F4F4F4"/>
<stop offset="0.946" stop-color="#E8E8E8"/>
<stop offset="1" stop-color="#E8E8E8"/>
</linearGradient>
<linearGradient id="paint1_linear_280_23" x1="19.9186" y1="23.2466" x2="1.17917" y2="-2.77328" gradientUnits="userSpaceOnUse">
<stop stop-color="#912FBD"/>
<stop offset="1" stop-color="#9332BF"/>
</linearGradient>
</defs>
</svg>
