<svg width="22" height="24" viewBox="0 0 22 24" fill="none" xmlns="http://www.w3.org/2000/svg">
<g clip-path="url(#clip0_280_18)">
<path d="M2.39435 17.3939L2.36615 17.3431C1.48143 15.7587 1.01426 13.9487 1.01507 12.1092C1.01751 6.33681 5.55935 1.64032 11.1394 1.64032C13.8461 1.64116 16.3897 2.7317 18.3009 4.71054C20.2119 6.6891 21.2645 9.31979 21.2645 12.1179C21.2618 17.8912 16.7202 22.588 11.1402 22.588C9.44638 22.5871 7.77319 22.1465 6.29738 21.3137L6.25021 21.2868L0.986328 22.715L2.39435 17.3939Z" fill="#F2FAFF"/>
<path d="M11.1398 1.78055C13.8105 1.78139 16.3199 2.85706 18.2054 4.80954C20.0909 6.76201 21.1293 9.35737 21.1293 12.1179C21.1269 17.8138 16.6458 22.4477 11.1365 22.4477C9.46928 22.4469 7.81859 22.0121 6.36285 21.1906L6.26823 21.1373L6.16411 21.1656L1.1795 22.5176L2.51079 17.4876L2.54062 17.3745L2.48395 17.273C1.61088 15.7096 1.14995 13.924 1.15076 12.1092C1.15347 6.41421 5.63431 1.78055 11.1398 1.78055ZM11.1398 1.50006C5.48518 1.50006 0.882336 6.25966 0.879896 12.1092C0.878812 13.979 1.35113 15.8049 2.24914 17.4135L0.793945 22.9122L6.23298 21.4369C7.73129 22.2825 9.41912 22.7274 11.1362 22.7282H11.1406C16.7952 22.7282 21.398 17.9686 21.4004 12.1182C21.4004 9.28304 20.3341 6.617 18.3971 4.61123C16.4603 2.60574 13.8845 1.5009 11.1398 1.50006Z" fill="#788B9C"/>
<path d="M11.0943 20.5732C9.7362 20.5724 8.39243 20.219 7.20837 19.5506L6.43102 19.1119L5.5745 19.3441L3.81698 19.8207L4.2668 18.1206L4.51272 17.1917L4.0469 16.3575C3.33706 15.086 2.96208 13.6326 2.96289 12.1547C2.96479 7.51736 6.6135 3.74452 11.0962 3.74396C13.2713 3.7448 15.3146 4.62076 16.85 6.21029C18.3855 7.80009 19.2312 9.91413 19.2312 12.1617C19.229 16.7998 15.5803 20.5732 11.0943 20.5732Z" fill="#79BA7E"/>
<path d="M15.588 14.2275C15.344 14.1015 14.1453 13.4909 13.9224 13.4073C13.6987 13.3229 13.5363 13.2814 13.3739 13.5333C13.2115 13.7857 12.7443 14.3534 12.6025 14.5214C12.4604 14.6894 12.3183 14.7105 12.0743 14.5848C11.8303 14.4589 11.0448 14.1921 10.114 13.3333C9.38896 12.6652 8.89983 11.8391 8.75802 11.5867C8.61595 11.3342 8.74257 11.1982 8.86485 11.0723C8.97412 10.9592 9.10888 10.7775 9.23062 10.6305C9.35236 10.4835 9.39303 10.3781 9.47464 10.2098C9.55625 10.0418 9.51558 9.89394 9.45431 9.768C9.39303 9.64207 8.90579 8.40063 8.70244 7.89631C8.50478 7.4049 8.30332 7.47137 8.15393 7.4638C8.01185 7.45622 7.84944 7.45538 7.68703 7.45538C7.52462 7.45538 7.25999 7.51877 7.03711 7.77121C6.81423 8.02365 6.18384 8.63343 6.18384 9.87431C6.18384 11.1152 7.05745 12.3143 7.17919 12.4823C7.30093 12.6503 8.89766 15.1968 11.3439 16.2888C11.9252 16.548 12.3799 16.7033 12.7335 16.82C13.3172 17.0119 13.8486 16.9847 14.2692 16.9196C14.7377 16.847 15.7119 16.3098 15.9142 15.7211C16.1175 15.1323 16.1175 14.6275 16.0563 14.5226C15.9944 14.4168 15.832 14.3534 15.588 14.2275Z" fill="white"/>
</g>
<defs>
<clipPath id="clip0_280_18">
<rect width="21.6911" height="22.439" fill="white" transform="translate(0.251953 0.939087)"/>
</clipPath>
</defs>
</svg>
