<svg width="20" height="20" viewBox="0 0 20 20" fill="none" xmlns="http://www.w3.org/2000/svg">
<g clip-path="url(#clip0_424_2)">
<path d="M12.3739 9.99963L19.8022 17.4274C20.0659 17.6912 20.0659 18.118 19.8022 18.3817L18.3825 19.8019C18.2561 19.9282 18.0845 19.9994 17.9054 19.9994C17.7263 19.9994 17.5547 19.9282 17.4283 19.8019L10 12.3735L2.57174 19.8019C2.4453 19.9282 2.27372 19.9994 2.09459 19.9994C1.9155 19.9994 1.74388 19.9282 1.61748 19.8019L0.19783 18.3817C-0.0659433 18.118 -0.0659433 17.6912 0.19783 17.4274L7.6261 9.99958L0.198568 2.57266C-0.0650751 2.30889 -0.0650751 1.88204 0.198568 1.61836L1.61831 0.198185C1.74466 0.0718331 1.91628 0.000690666 2.09542 0.000690666C2.27455 0.000690666 2.44613 0.0718331 2.57261 0.198185L9.99997 7.62567L17.4274 0.198185C17.5538 0.0718331 17.7254 0.000690666 17.9045 0.000690666C18.0837 0.000690666 18.2553 0.0718331 18.3816 0.198185L19.8014 1.61836C20.065 1.88204 20.065 2.30889 19.8014 2.57266L12.3739 9.99963Z" fill="#626473" fill-opacity="0.58"/>
</g>
<defs>
<clipPath id="clip0_424_2">
<rect width="20" height="20" fill="white" transform="matrix(1 0 0 -1 0 20)"/>
</clipPath>
</defs>
</svg>
